<svg width="16" height="17" viewBox="0 0 16 17" fill="none" xmlns="http://www.w3.org/2000/svg">
<g clip-path="url(#clip0_250_1500)">
<path d="M14.0903 6.31238C13.7207 5.43884 13.1924 4.65467 12.5185 3.98133C11.8452 3.30798 11.061 2.77917 10.188 2.41003C9.28366 2.02723 8.32298 1.83337 7.33325 1.83337C6.34326 1.83337 5.38305 2.02723 4.47876 2.41003C3.60546 2.77917 2.82105 3.30798 2.1477 3.98133C1.47436 4.65467 0.945798 5.43887 0.576436 6.31238C0.193854 7.21671 0 8.17713 0 9.16687C0 10.1566 0.193854 11.1171 0.576404 12.0214C0.945798 12.8944 1.47436 13.6791 2.1477 14.3524C2.82102 15.0258 3.60546 15.5541 4.47876 15.9237C5.38305 16.306 6.34326 16.4999 7.33325 16.4999C8.32298 16.4999 9.28366 16.306 10.188 15.9237C11.061 15.5541 11.8452 15.0258 12.5185 14.3524C13.1924 13.6791 13.7207 12.8944 14.0903 12.0214C14.4726 11.1171 14.6665 10.1566 14.6665 9.16687C14.6665 8.17713 14.4726 7.21671 14.0903 6.31238Z" fill="#ED5564"/>
<path d="M10.8684 5.63129C9.92405 4.68696 8.66867 4.16693 7.33301 4.16693C5.99732 4.16693 4.74172 4.68696 3.79736 5.63129C2.853 6.57562 2.33301 7.83149 2.33301 9.1669C2.33301 10.5023 2.85303 11.7577 3.79736 12.7026C4.74169 13.6469 5.99732 14.1669 7.33301 14.1669C8.66867 14.1669 9.92405 13.6469 10.8684 12.7026C11.8132 11.7578 12.3332 10.5024 12.3332 9.1669C12.3332 7.83146 11.8132 6.57562 10.8684 5.63129Z" fill="#E6E9ED"/>
<path d="M7.33326 6.49988C5.86281 6.49988 4.6665 7.69616 4.6665 9.16686C4.6665 10.6371 5.86278 11.8334 7.33326 11.8334C8.80371 11.8334 9.99999 10.6371 9.99999 9.16686C9.99999 7.69616 8.80371 6.49988 7.33326 6.49988Z" fill="#ED5564"/>
<path d="M15.9815 3.07998C15.9391 2.95938 15.8311 2.87344 15.7037 2.85928L13.8473 2.65277L13.6412 0.796802C13.627 0.669358 13.5411 0.561446 13.42 0.518944C13.2994 0.476473 13.1647 0.507225 13.0738 0.597573L10.7169 2.95501C10.6627 3.0092 10.6285 3.08098 10.6212 3.15764L10.4508 4.87298C10.4381 5.00286 10.5021 5.12833 10.6149 5.19424C10.6671 5.22453 10.7248 5.23918 10.7829 5.23918C10.8502 5.23918 10.9176 5.21915 10.9752 5.17815L12.1559 4.34417L11.3219 5.52532C11.2467 5.63177 11.2403 5.77237 11.3062 5.88519C11.3663 5.98869 11.4762 6.05072 11.5938 6.05072C11.6051 6.05072 11.6158 6.05023 11.627 6.04926L13.3428 5.87931C13.4195 5.8715 13.4908 5.83781 13.5454 5.78312L15.9024 3.42622C15.9932 3.33584 16.0235 3.20108 15.9815 3.07998Z" fill="#F6BB42"/>
<path d="M7.33339 9.49988C7.24795 9.49988 7.16273 9.46766 7.09757 9.40222C6.96744 9.27233 6.96744 9.06142 7.09782 8.93104L8.12415 7.90467C8.25428 7.77429 8.46548 7.77429 8.59583 7.90467C8.72571 8.03455 8.72571 8.24597 8.59583 8.37585L7.569 9.40222C7.50403 9.46766 7.41858 9.49988 7.33339 9.49988Z" fill="#434A54"/>
<path d="M13.7812 2.71916C13.7246 2.66253 13.6245 2.59515 13.4687 2.59515C13.1621 2.59515 12.5796 2.86417 10.4136 4.81536C9.23777 5.87491 8.13769 6.94816 8.12694 6.95891C8.06271 7.02191 8.02637 7.10785 8.02637 7.1977V8.14006C8.02637 8.32416 8.17578 8.47358 8.35985 8.47358H9.30271C9.39256 8.47358 9.4785 8.43745 9.54101 8.37298C9.55273 8.36126 10.7236 7.16154 11.8286 5.9262C12.4814 5.19622 12.9848 4.59563 13.3252 4.14054C13.5381 3.85591 13.6865 3.6303 13.7793 3.44963C13.8408 3.33 14.0278 2.96574 13.7812 2.71916Z" fill="#FFCE54"/>
</g>
<defs>
<clipPath id="clip0_250_1500">
<rect width="16" height="16" fill="white" transform="translate(0 0.5)"/>
</clipPath>
</defs>
</svg>
