<svg width="20" height="20" viewBox="0 0 20 20" fill="none" xmlns="http://www.w3.org/2000/svg">
<g clip-path="url(#clip0_236_1173)">
<path d="M7.78125 12.1875V16.0625L0 20V14.8438L7.78125 12.1875Z" fill="#89664C"/>
<path d="M7.78125 12.1875H20V16.0312H7.78125V12.1875Z" fill="#B77E58"/>
<path d="M7.78125 16.0625L0 20H16.7188L20 16.0625H7.78125Z" fill="#F2BC97"/>
<path d="M11.0625 14.8438C11.0625 14.8438 10.9688 17.0312 10.5312 17.4375C9.6875 18.25 7.0625 18.25 6.1875 17.4375C5.75 17.0312 5.65625 14.8438 5.65625 14.8438H0V20H16.7188V14.8438H11.0625Z" fill="#D3976E"/>
<path d="M20 16.0625L16.7188 20V14.8438L20 12.1875V16.0625Z" fill="#89664C"/>
<path d="M15.1562 10.625L13.4063 9.9375C13.4063 9.9375 14.25 6.75 11.9687 3.65625C9.84375 0.78125 7.1875 0 7.1875 0L6.75 0.09375C6.75 0.09375 9.03125 1.75 9.6875 4.59375C10.0937 6.3125 9.875 7.90625 9.75 8.4375L8.25 7.84375H7.59375L9.375 14.625H10.0312L15.1562 10.625Z" fill="#5B7F38"/>
<path d="M6.71875 0.09375C6.71875 0.09375 8.28125 1.59375 9.21875 4.375C10 6.65625 9.375 8.53125 9.375 8.53125L7.5625 7.84375L9.375 14.625L14.5 10.625L12.75 9.9375C12.75 9.9375 13.5938 6.75 11.3125 3.65625C9.15625 0.78125 6.71875 0.09375 6.71875 0.09375Z" fill="#83BF4F"/>
</g>
<defs>
<clipPath id="clip0_236_1173">
<rect width="20" height="20" fill="white"/>
</clipPath>
</defs>
</svg>
