<svg width="112" height="112" viewBox="0 0 112 112" fill="none" xmlns="http://www.w3.org/2000/svg">
<rect x="0.5" y="0.5" width="111" height="111" rx="55.5" fill="#2F2F2F"/>
<rect x="0.5" y="0.5" width="111" height="111" rx="55.5" stroke="url(#paint0_linear_643_778)" style="mix-blend-mode:overlay"/>
<path d="M36.7504 82.5V30.1364H57.7163C61.5685 30.1364 64.7816 30.7074 67.3555 31.8494C69.9293 32.9915 71.864 34.5767 73.1594 36.6051C74.4549 38.6165 75.1026 40.9347 75.1026 43.5597C75.1026 45.6051 74.6935 47.4034 73.8754 48.9545C73.0572 50.4886 71.9322 51.75 70.5004 52.7386C69.0856 53.7102 67.4663 54.4006 65.6424 54.8097V55.321C67.6367 55.4062 69.5032 55.9687 71.2418 57.0085C72.9975 58.0483 74.4208 59.5057 75.5117 61.3807C76.6026 63.2386 77.1481 65.4545 77.1481 68.0284C77.1481 70.8068 76.4577 73.2869 75.0771 75.4688C73.7134 77.6335 71.6935 79.3466 69.0174 80.608C66.3413 81.8693 63.043 82.5 59.1225 82.5H36.7504ZM47.8214 73.4489H56.8469C59.9322 73.4489 62.1822 72.8608 63.5969 71.6847C65.0117 70.4915 65.7191 68.9062 65.7191 66.929C65.7191 65.4801 65.3697 64.2017 64.6708 63.0938C63.9719 61.9858 62.9748 61.1165 61.6793 60.4858C60.4009 59.8551 58.8754 59.5398 57.1026 59.5398H47.8214V73.4489ZM47.8214 52.0483H56.0288C57.5458 52.0483 58.8924 51.7841 60.0685 51.2557C61.2617 50.7102 62.1992 49.9432 62.881 48.9545C63.5799 47.9659 63.9293 46.7812 63.9293 45.4006C63.9293 43.5085 63.256 41.983 61.9094 40.8239C60.5799 39.6648 58.6879 39.0852 56.2333 39.0852H47.8214V52.0483Z" fill="white"/>
<defs>
<linearGradient id="paint0_linear_643_778" x1="18.2" y1="12.6" x2="104.3" y2="104.3" gradientUnits="userSpaceOnUse">
<stop stop-color="#CCCCCC"/>
<stop offset="1" stop-color="#525252"/>
</linearGradient>
</defs>
</svg>
