<svg width="174" height="173" viewBox="0 0 174 173" fill="none" xmlns="http://www.w3.org/2000/svg">
<g clip-path="url(#clip0_633_851)">
<path d="M167 88C167 42.1604 129.84 5 84 5C38.1604 5 1 42.1604 1 88V89C1 134.84 38.1604 172 84 172C129.84 172 167 134.84 167 89V88Z" fill="white"/>
<path d="M131.475 142.281C129.647 141.652 128.936 141.717 127.036 141.748C127.129 141.748 126.843 139.754 126.805 139.582C126.557 138.465 126.092 137.402 125.474 136.441C124.109 134.38 122.009 132.916 119.594 132.363C122.656 130.336 121.056 125.894 118.452 123.334C116.397 121.314 113.031 121.129 110.773 122.92C110.396 120.652 109.189 118.555 107.412 117.098C106.529 116.371 105.515 117.811 104.433 117.444C103.771 117.219 103.085 117.069 102.39 116.993C102.151 116.86 101.923 116.44 101.745 116.229C101.523 115.965 102.5 113.928 102.62 113.416C102.774 112.797 102.695 111.098 103.242 110.727C103.582 110.497 102.874 108.465 102.79 108.045C102.574 106.967 102.24 105.91 101.783 104.908C100.929 103.039 100.628 100.377 99.0179 99.101C98.2219 98.455 97.3299 97.913 96.4009 97.482C95.8459 97.218 95.2839 97.269 95.4599 96.601C95.6059 96.044 93.7849 96.497 93.9849 95.96C95.8829 90.851 99.1419 86.22 102.131 81.704C103.003 80.3878 103.879 79.0748 104.749 77.7568C102.495 76.7568 100.24 75.7568 97.9859 74.7568C97.5969 74.5828 97.2099 74.4108 96.8209 74.2388C96.6029 74.1408 96.5369 74.4068 96.4159 74.5848C95.7859 75.5128 95.1799 76.4558 94.5869 77.4068C92.2339 81.184 90.1029 85.098 88.1739 89.106C86.8739 91.807 85.6699 94.555 84.5739 97.344C84.0369 98.713 83.5249 100.092 83.0419 101.479C82.7679 102.268 82.8019 102.155 83.3929 102.674C83.8749 103.098 84.3229 103.565 84.7339 104.057C86.0259 105.582 86.9439 107.418 87.4199 109.356C87.5609 109.93 88.0969 111.62 87.6749 112.106C87.5209 112.284 87.2119 112.501 87.4459 112.708C87.7039 112.937 87.7349 113.485 87.7049 113.79C87.3269 117.534 85.4059 120.878 82.3789 123.116C84.6079 124.073 86.4189 125.887 87.3799 128.112C87.7809 129.048 88.0339 130.053 88.1169 131.067C88.1389 131.358 88.4139 131.774 88.2839 132.038C87.9699 132.679 88.0249 133.602 87.8459 134.3C88.8109 134.06 89.8349 134.071 90.7939 134.331C91.0609 134.405 91.3709 135.181 91.8549 134.854C92.1119 134.68 93.0529 135.518 93.2289 135.682C93.8749 136.282 94.3899 137.034 94.7009 137.86C95.9899 141.251 93.8299 145.106 90.2219 145.706C93.7789 148.376 95.0329 153.278 93.1839 157.327C96.3379 158.237 98.9639 160.452 100.46 163.364C101.07 164.583 101.449 165.884 101.628 167.233C101.656 167.471 101.812 168.012 101.61 168.194C101.452 168.335 101.334 168.581 101.334 168.784C101.334 168.932 101.48 169.153 101.557 169.286C101.715 169.556 101.622 170.091 101.579 170.391C110.896 168.743 119.921 165.516 128.173 160.887C130.128 159.789 132.04 158.616 133.902 157.367C134.831 156.744 135.747 156.101 136.651 155.443C137.19 155.05 138.486 153.978 138.417 153.287C138.361 152.73 138.267 152.18 138.134 151.639C137.176 147.761 135.258 143.566 131.475 142.281C136.185 143.882 131.378 142.248 131.475 142.281Z" fill="#CCCCCC"/>
<path d="M86.7119 2C60.0029 2 36.1819 14.343 20.6289 33.636C18.0279 36.863 15.6579 40.282 13.5449 43.87C20.1439 44.563 25.2879 50.145 25.2879 56.929C25.2879 57.802 25.2009 58.656 25.0369 59.482C26.0389 59.125 27.1169 58.927 28.2399 58.927C32.0929 58.927 35.4079 61.214 36.9149 64.499C37.9789 63.353 39.4969 62.632 41.1839 62.632C44.4069 62.632 47.0179 65.243 47.0179 68.466C47.0179 69.249 46.8619 69.993 46.5809 70.677C46.7729 70.665 46.9649 70.657 47.1589 70.657C51.1319 70.657 54.5349 73.087 55.9709 76.54C56.9979 76.163 58.1099 75.954 59.2679 75.954C64.1679 75.954 68.2039 79.651 68.7439 84.407C70.6719 83.581 72.5979 82.637 74.4749 81.637C83.8909 76.623 91.9859 70.203 91.9859 70.203L101.666 78.381C96.9039 85.59 94.5329 92.791 93.3519 98.043C93.6489 98.15 93.9369 98.272 94.2199 98.398C94.2819 98.425 94.3419 98.453 94.4019 98.48C94.6769 98.609 94.9469 98.744 95.2099 98.888C95.2499 98.909 95.2869 98.933 95.3269 98.954C95.5659 99.091 95.7999 99.233 96.0279 99.382C96.0719 99.411 96.1169 99.439 96.1609 99.468C96.4069 99.632 96.6449 99.806 96.8789 99.986C96.9259 100.023 96.9729 100.06 97.0199 100.099C97.2419 100.275 97.4579 100.456 97.6659 100.644C97.6819 100.658 97.6969 100.671 97.7129 100.685C97.9309 100.886 98.1399 101.093 98.3429 101.306C98.3879 101.353 98.4309 101.4 98.4749 101.447C98.6729 101.662 98.8669 101.879 99.0499 102.105C99.0689 102.13 99.0849 102.154 99.1039 102.177C99.2739 102.39 99.4349 102.607 99.5899 102.829C99.6229 102.876 99.6579 102.923 99.6909 102.972C99.8529 103.208 100.006 103.451 100.152 103.697C100.181 103.746 100.208 103.795 100.235 103.843C100.367 104.072 100.492 104.304 100.608 104.538C100.626 104.575 100.645 104.61 100.663 104.645C100.788 104.903 100.903 105.166 101.011 105.432C101.037 105.493 101.061 105.555 101.085 105.616C101.189 105.887 101.289 106.161 101.377 106.436C101.382 106.452 101.385 106.467 101.391 106.483C101.473 106.749 101.545 107.018 101.611 107.29C101.627 107.354 101.643 107.419 101.657 107.483C101.721 107.76 101.776 108.042 101.821 108.325C101.83 108.378 101.835 108.429 101.843 108.481C101.881 108.737 101.91 108.995 101.932 109.252C101.937 109.307 101.944 109.359 101.948 109.414C101.969 109.701 101.98 109.99 101.981 110.281C101.981 110.308 101.984 110.336 101.984 110.365C101.984 110.453 101.981 110.543 101.98 110.631C101.978 110.694 101.978 110.754 101.976 110.815C101.969 110.997 101.959 111.178 101.947 111.36C101.945 111.376 101.945 111.391 101.943 111.407C101.927 111.606 101.906 111.805 101.881 112.005C101.873 112.06 101.865 112.112 101.858 112.167C101.837 112.31 101.816 112.454 101.791 112.599C101.779 112.667 101.767 112.738 101.753 112.806C101.728 112.939 101.701 113.07 101.672 113.201C101.656 113.273 101.641 113.344 101.623 113.414C101.591 113.551 101.555 113.687 101.517 113.826C101.5 113.887 101.485 113.947 101.467 114.008C101.41 114.205 101.35 114.403 101.283 114.598C101.104 115.125 100.891 115.629 100.655 116.118L101.392 116.991C102.074 117.065 102.757 117.212 103.435 117.442C106.88 118.614 109.218 121.561 109.776 124.919C109.802 124.898 109.829 124.878 109.855 124.858C109.859 124.854 109.863 124.852 109.867 124.848C109.876 124.84 109.887 124.832 109.896 124.827C109.914 124.813 109.932 124.804 109.95 124.79C110.038 124.726 110.13 124.663 110.221 124.604C110.25 124.584 110.279 124.567 110.309 124.547C110.431 124.471 110.554 124.401 110.681 124.334C110.683 124.332 110.684 124.332 110.686 124.332C110.809 124.268 110.934 124.209 111.061 124.154C111.097 124.138 111.134 124.123 111.17 124.109C111.268 124.068 111.366 124.031 111.465 123.996C111.504 123.984 111.542 123.969 111.581 123.957C111.701 123.918 111.824 123.881 111.946 123.85C111.96 123.846 111.973 123.842 111.988 123.838C112.125 123.805 112.263 123.777 112.402 123.754C112.441 123.746 112.48 123.74 112.52 123.736C112.622 123.72 112.724 123.707 112.828 123.697C112.875 123.693 112.922 123.689 112.969 123.685C113.074 123.677 113.182 123.683 113.288 123.683C113.317 123.683 113.347 123.691 113.375 123.691C113.377 123.691 113.38 123.691 113.38 123.691C113.388 123.691 113.396 123.679 113.404 123.681C113.543 123.681 113.682 123.679 113.821 123.691C113.853 123.695 113.886 123.695 113.919 123.699C114.028 123.709 114.14 123.722 114.25 123.738C114.295 123.746 114.34 123.752 114.385 123.759C114.487 123.777 114.589 123.798 114.69 123.822C114.734 123.832 114.778 123.842 114.821 123.851C114.949 123.884 115.077 123.921 115.203 123.964C115.215 123.968 115.227 123.97 115.239 123.974C115.244 123.976 115.25 123.976 115.255 123.978C115.43 124.039 115.597 124.107 115.763 124.181C115.814 124.204 115.864 124.23 115.914 124.253C116.027 124.308 116.139 124.366 116.247 124.427C116.301 124.456 116.353 124.488 116.405 124.519C116.512 124.585 116.616 124.654 116.718 124.724C116.761 124.755 116.806 124.785 116.848 124.816C116.988 124.92 117.123 125.027 117.253 125.142C117.261 125.15 117.27 125.158 117.277 125.165C117.397 125.274 117.512 125.388 117.622 125.503C117.66 125.544 117.696 125.585 117.731 125.628C117.81 125.716 117.887 125.808 117.96 125.899C117.998 125.946 118.035 125.995 118.069 126.044C118.14 126.14 118.208 126.239 118.273 126.341C118.301 126.384 118.331 126.427 118.359 126.472C118.446 126.618 118.529 126.765 118.604 126.915C118.615 126.938 118.623 126.96 118.634 126.981C118.697 127.114 118.755 127.249 118.808 127.383C118.829 127.438 118.847 127.492 118.868 127.547C118.907 127.654 118.942 127.764 118.974 127.875C118.991 127.934 119.008 127.992 119.023 128.055C119.054 128.17 119.079 128.287 119.102 128.405C119.112 128.458 119.123 128.509 119.132 128.559C119.159 128.729 119.181 128.897 119.194 129.069C119.196 129.098 119.196 129.126 119.198 129.155C119.205 129.272 119.211 129.391 119.211 129.51C119.211 129.535 119.208 129.563 119.208 129.59C119.207 129.651 119.203 129.709 119.2 129.77C119.195 129.887 119.185 130.008 119.173 130.127C119.167 130.19 119.158 130.252 119.151 130.315C119.133 130.438 119.11 130.563 119.085 130.686C119.073 130.741 119.064 130.795 119.051 130.85C119.008 131.028 118.96 131.204 118.901 131.379C118.468 132.65 117.636 133.672 116.597 134.359C116.922 134.433 117.247 134.523 117.573 134.634C118.573 134.974 119.48 135.464 120.278 136.07C120.432 136.189 120.583 136.31 120.729 136.437C120.733 136.441 120.737 136.443 120.741 136.447C120.872 136.56 120.999 136.676 121.123 136.797C121.151 136.824 121.178 136.852 121.207 136.881C121.305 136.979 121.403 137.078 121.497 137.178C121.503 137.186 121.51 137.192 121.516 137.199C121.558 137.244 121.596 137.291 121.637 137.338C121.708 137.418 121.78 137.498 121.848 137.58C121.898 137.641 121.945 137.703 121.993 137.764C122.055 137.842 122.116 137.92 122.176 138C122.224 138.064 122.27 138.131 122.316 138.197C122.372 138.277 122.425 138.355 122.478 138.437C122.523 138.505 122.567 138.576 122.611 138.646C122.661 138.726 122.71 138.808 122.757 138.888C122.798 138.96 122.838 139.033 122.877 139.105C122.923 139.189 122.967 139.273 123.009 139.357C123.047 139.429 123.083 139.503 123.118 139.58C123.159 139.666 123.197 139.752 123.235 139.838C123.268 139.914 123.3 139.988 123.332 140.065C123.369 140.155 123.403 140.245 123.436 140.335C123.464 140.411 123.493 140.487 123.52 140.564C123.551 140.656 123.581 140.75 123.609 140.843C123.633 140.919 123.658 140.993 123.679 141.072C123.706 141.17 123.731 141.269 123.756 141.369C123.774 141.441 123.794 141.514 123.811 141.588C123.835 141.699 123.856 141.811 123.876 141.924C123.889 141.987 123.902 142.049 123.912 142.112C123.941 142.286 123.966 142.46 123.984 142.633C123.992 142.699 123.995 142.766 124.002 142.832C124.011 142.943 124.022 143.055 124.027 143.166C124.032 143.252 123.912 143.848 123.914 143.934C123.916 144.012 124.305 143.856 124.43 143.825C124.463 143.817 124.69 143.731 124.69 143.766C124.69 143.703 125.256 143.713 125.71 143.702C125.728 143.702 125.734 143.702 125.742 143.704C125.717 143.698 125.688 143.692 125.688 143.692C125.691 143.692 125.693 143.692 125.696 143.692C125.715 143.692 125.734 143.672 125.753 143.672C125.801 143.674 125.847 143.662 125.895 143.662C126.107 143.666 126.319 143.672 126.532 143.687C126.576 143.689 126.619 143.691 126.662 143.695C126.931 143.716 127.198 143.746 127.467 143.787C127.484 143.789 127.501 143.793 127.519 143.795C127.786 143.836 128.05 143.889 128.316 143.951C128.344 143.957 128.374 143.963 128.401 143.969C128.665 144.032 128.928 144.104 129.191 144.186C129.215 144.196 129.242 144.2 129.266 144.209C129.274 144.211 129.28 144.211 129.287 144.215C129.31 144.223 129.333 144.229 129.356 144.238C129.388 144.248 129.42 144.258 129.452 144.269C129.462 144.271 129.472 144.275 129.481 144.279C134.191 145.881 137.226 150.164 137.469 154.845C158.166 139.374 171.565 114.673 171.565 86.845C171.559 39.986 133.571 2 86.7119 2Z" fill="#2F2F2F"/>
<path d="M38.34 91.695L38.019 90.898C37.914 90.605 37.75 90.384 37.585 90.148C37.418 89.916 37.252 89.671 37.067 89.439L36.416 88.841C36.196 88.632 35.963 88.435 35.693 88.3L34.891 87.843C34.62 87.689 34.314 87.63 34.017 87.523C33.716 87.443 33.415 87.308 33.101 87.279L32.144 87.189C31.819 87.146 31.499 87.168 31.177 87.21C30.945 87.235 30.71 87.271 30.477 87.306L30.441 87.191L30.372 86.97L30.243 86.671C30.064 86.276 29.877 85.857 29.675 85.538C29.29 84.849 28.817 84.202 28.265 83.634C27.725 83.054 27.116 82.538 26.457 82.097C25.789 81.671 25.087 81.3 24.347 81.021C23.602 80.7608 22.835 80.5538 22.052 80.4638C21.664 80.3958 21.269 80.3958 20.876 80.3878C20.484 80.3678 20.094 80.4188 19.705 80.4448C19.461 80.4678 19.224 80.5228 18.984 80.5678C18.851 80.3858 18.717 80.2048 18.549 80.0498L17.905 79.4268L17.187 78.9018C16.958 78.7218 16.68 78.6048 16.422 78.4718C16.159 78.3448 15.908 78.2058 15.627 78.1298C15.353 78.0378 15.077 77.9618 14.807 77.8858L13.969 77.7668C13.696 77.7218 13.414 77.7398 13.14 77.7508C12.844 77.7708 12.646 77.7528 12.283 77.8188L11.597 77.9908C11.358 78.0608 11.075 78.1818 10.83 78.2798C10.573 78.3718 10.351 78.5028 10.137 78.6388C9.923 78.7748 9.711 78.8998 9.53 79.0798C9.343 79.2458 9.165 79.4138 9 79.5848L9.71 79.4928C9.931 79.4458 10.177 79.4848 10.394 79.4678C10.615 79.4558 10.831 79.4538 11.033 79.4948C11.243 79.5278 11.409 79.5398 11.627 79.5868L12.318 79.7348L12.828 79.9418C13.195 80.0588 13.511 80.3008 13.828 80.4598L14.254 80.8018C14.402 80.8938 14.518 81.038 14.64 81.161C14.898 81.39 15.078 81.692 15.286 81.942C15.434 82.247 15.621 82.506 15.719 82.815C15.776 82.963 15.852 83.098 15.872 83.258C15.904 83.41 15.941 83.559 15.988 83.701L16.526 85.346L18.582 85.082C19.046 85.021 19.504 85.002 19.955 85.018C20.181 85.041 20.404 85.028 20.625 85.079C20.847 85.11 21.065 85.147 21.28 85.204C21.716 85.284 22.133 85.442 22.533 85.618C22.94 85.784 23.321 86.003 23.684 86.243C23.85 86.386 24.043 86.493 24.206 86.638C24.367 86.784 24.549 86.911 24.69 87.077C24.846 87.229 24.995 87.39 25.128 87.561C25.279 87.721 25.407 87.899 25.529 88.082C25.677 88.271 25.739 88.414 25.841 88.568L25.918 88.679L26.014 88.888L26.206 89.308L26.254 89.413L26.267 89.44L26.273 89.452L26.274 89.456C26.276 89.462 26.273 89.452 26.268 89.438L26.309 89.555L26.428 89.871L26.625 90.533L27.653 93.978L30.175 92.001C30.265 91.931 30.349 91.849 30.431 91.755C30.489 91.706 30.478 91.657 30.591 91.599L30.918 91.411L31.244 91.22L31.407 91.113L31.448 91.06L31.469 90.99L31.476 90.898C31.606 90.91 31.737 91.009 31.868 90.949C32.029 90.867 32.196 90.795 32.372 90.781L32.906 90.666C33.09 90.607 33.27 90.646 33.461 90.627C33.648 90.631 33.851 90.592 34.04 90.623L34.627 90.709C34.836 90.721 35.026 90.785 35.22 90.854L35.828 91.051C36.018 91.143 36.204 91.252 36.402 91.356C36.592 91.465 36.827 91.555 36.977 91.696L37.52 92.112C37.721 92.241 37.874 92.473 38.05 92.659C38.22 92.856 38.391 93.052 38.574 93.243C38.555 92.979 38.524 92.722 38.493 92.464C38.45 92.207 38.466 91.949 38.34 91.695ZM26.236 89.355L26.237 89.359L26.25 89.396C26.233 89.347 26.217 89.3 26.236 89.355ZM31.322 90.693H31.326V90.695C31.323 90.695 31.323 90.693 31.32 90.693H31.322Z" fill="#CCCCCC"/>
<path d="M64.8099 126.027C64.6569 125.5 64.4679 124.968 64.2659 124.433C63.9929 123.943 63.7029 123.441 63.3779 122.958C63.0139 122.55 62.6419 122.126 62.2359 121.735L62.3649 121.399C62.5319 120.817 62.6249 120.21 62.7389 119.606L62.7799 119.377L62.8009 119.066L62.8259 118.689C62.8389 118.427 62.8759 118.222 62.8469 117.847L62.7809 116.831L62.6309 115.909C62.5129 115.3 62.3549 114.688 62.1229 114.106C61.9109 113.516 61.6349 112.954 61.3359 112.399C61.0189 111.86 60.6799 111.327 60.2729 110.848C59.8919 110.346 59.4389 109.909 58.9929 109.465C58.5129 109.059 58.0259 108.66 57.4899 108.328C56.9739 107.967 56.4029 107.695 55.8379 107.424C55.2569 107.18 54.6669 106.975 54.0569 106.822C53.4539 106.654 52.8309 106.57 52.2139 106.511L51.2829 106.491L51.2239 106.555L51.0399 106.688H51.0169L50.9209 106.561L50.7319 106.438L50.3519 106.465C50.0849 106.488 49.8749 106.485 49.5599 106.537L48.5549 106.726C48.1389 106.796 47.7759 106.912 47.4229 107.037C47.3469 106.846 47.2619 106.656 47.1839 106.469C46.9309 105.934 46.6339 105.428 46.2809 104.967C45.9259 104.51 45.5339 104.09 45.1049 103.723C44.6669 103.362 44.2079 103.043 43.7219 102.784L42.9759 102.44C42.7189 102.348 42.4599 102.268 42.2049 102.192C41.6819 102.065 41.1619 101.985 40.6459 101.962C40.1249 101.964 39.6199 102.001 39.1309 102.11L39.8199 102.37L40.4659 102.681L41.0679 103.027L41.6189 103.422L42.1159 103.86L42.5639 104.325C42.8379 104.655 43.0899 104.983 43.2989 105.337C43.5009 105.692 43.6819 106.048 43.8159 106.417C43.9429 106.792 44.0519 107.157 44.1139 107.53C44.1329 107.721 44.1729 107.899 44.1729 108.089C44.1749 108.267 44.1989 108.474 44.1789 108.62C44.1589 108.8 44.1489 108.866 44.1189 109.124L44.0269 109.485L43.9209 109.639L44.0989 109.668L43.2329 112.516L46.9279 111.545C47.3279 111.441 47.6989 111.258 48.0959 111.19C48.4859 111.143 48.9019 110.956 49.2219 110.979C49.3909 110.971 49.5559 110.868 49.7209 110.85C49.9039 110.842 50.2059 110.69 50.4429 110.69H50.8209L50.9739 110.817C50.9589 110.76 51.0199 110.69 50.9779 110.69H50.9829H50.9919L51.0229 110.858H51.0179L51.0239 110.864L51.0279 110.887L51.0489 110.897L51.1059 110.975L51.1169 110.932L51.6029 111.174C51.9779 111.262 52.3569 111.33 52.7139 111.463C53.0789 111.576 53.4259 111.734 53.7659 111.901C54.0969 112.083 54.4459 112.239 54.7459 112.471C55.0689 112.672 55.3449 112.934 55.6409 113.168C55.9089 113.436 56.1969 113.686 56.4279 113.988C56.6909 114.265 56.8779 114.599 57.1039 114.904C57.3029 115.228 57.4979 115.558 57.6459 115.91C57.7389 116.08 57.7959 116.262 57.8609 116.441C57.9259 116.62 58.0149 116.796 58.0539 116.984L58.2119 117.543L58.3079 118.031C58.3529 118.158 58.3729 118.457 58.3919 118.699L58.4359 119.078L58.4769 119.172L58.5479 119.219C58.5469 119.246 58.6859 119.01 58.6859 119.114V119.118V119.128V119.146L58.5399 119.292L58.3539 120.491L58.1339 121.69L57.7929 123.547L59.1229 124.139C59.4399 124.28 59.7689 124.41 60.1149 124.541C60.4129 124.736 60.7149 124.937 61.0439 125.131C61.3159 125.379 61.5769 125.651 61.8799 125.908C62.1119 126.213 62.3269 126.537 62.5929 126.857C62.7649 127.212 62.9599 127.58 63.1439 127.964L63.3089 128.571C63.3609 128.776 63.4489 128.991 63.4949 129.2C63.5369 129.608 63.5989 130.042 63.6359 130.514C63.6009 131 63.5479 131.483 63.5309 131.975C63.8129 131.571 64.0599 131.155 64.3239 130.743C64.4299 130.522 64.4959 130.268 64.5839 130.022L64.8289 129.247C64.9229 128.729 64.9529 128.2 64.9919 127.655C64.9499 127.128 64.8799 126.583 64.8099 126.027Z" fill="#CCCCCC"/>
<path d="M55.634 149.759C55.333 149.286 55.007 148.81 54.654 148.349C54.354 148.054 54.03 147.769 53.707 147.486C53.77 147.16 53.807 146.83 53.829 146.496L53.861 145.799L53.843 145.625L53.792 145.537L53.685 145.494V145.473V145.461L53.79 145.326L53.885 145.051C53.876 144.867 53.863 144.686 53.844 144.502C53.835 144.344 53.771 144.02 53.732 143.787C53.684 143.537 53.64 143.273 53.582 143.037C53.519 142.812 53.451 142.59 53.376 142.369C53.246 141.922 53.033 141.506 52.851 141.08C52.65 140.664 52.395 140.273 52.151 139.887C51.874 139.52 51.625 139.133 51.294 138.815C50.69 138.131 49.971 137.567 49.217 137.096C48.84 136.858 48.429 136.676 48.039 136.483C47.616 136.342 47.221 136.167 46.794 136.073C46.367 135.983 45.957 135.876 45.524 135.858C45.103 135.805 44.679 135.811 44.261 135.842C43.849 135.85 43.432 135.969 43.039 136.039C42.644 136.133 42.259 136.297 41.896 136.453L42.954 136.953C43.287 137.133 43.609 137.285 43.906 137.49C44.51 137.853 45.049 138.258 45.53 138.683C45.777 138.884 45.992 139.126 46.215 139.333C46.414 139.577 46.635 139.778 46.81 140.026C47.184 140.493 47.507 140.977 47.777 141.475C47.927 141.713 48.013 141.989 48.152 142.225L48.443 142.996C48.514 143.26 48.625 143.508 48.663 143.777C48.687 143.912 48.716 144.041 48.753 144.17L48.798 144.502C48.812 144.633 48.831 144.666 48.839 144.875C48.847 145.059 48.831 145.242 48.85 145.424L48.823 145.631L48.924 145.674L48.918 145.776L48.901 146.178C48.882 146.446 48.929 146.721 48.855 146.985C48.812 147.255 48.764 147.52 48.746 147.801L48.598 150.1L50.179 150.717C50.445 150.821 50.714 150.922 51.01 150.996C51.271 151.129 51.524 151.283 51.816 151.41C52.064 151.586 52.3 151.787 52.584 151.971C52.811 152.198 53.025 152.444 53.295 152.684C53.476 152.965 53.691 153.252 53.915 153.559C54.054 153.883 54.251 154.225 54.42 154.586L54.598 155.123C54.663 155.314 54.75 155.512 54.801 155.732C54.837 156.195 54.905 156.666 54.992 157.14C55.295 156.765 55.581 156.384 55.833 155.994C56.037 155.56 56.213 155.049 56.362 154.512C56.418 154.252 56.424 154 56.453 153.735C56.478 153.471 56.495 153.204 56.504 152.932C56.459 152.405 56.366 151.864 56.262 151.315C56.083 150.8 55.865 150.281 55.634 149.759Z" fill="#CCCCCC"/>
<mask id="mask0_633_851" style="mask-type:luminance" maskUnits="userSpaceOnUse" x="72" y="-19" width="119" height="118">
<path d="M190.539 17.8509L153.688 -19L72.9993 61.6887L109.85 98.5395L190.539 17.8509Z" fill="white"/>
</mask>
<g mask="url(#mask0_633_851)">
<path d="M124.438 74.5293C124.094 80.8699 121.452 87.1001 116.522 91.8611C114.115 94.1831 111.379 95.9441 108.468 97.1571C110.749 92.1941 111.375 86.6581 110.366 81.3661C112.689 80.4874 114.629 77.2672 116.98 76.1273C119.33 74.9875 122.087 75.9258 124.438 74.5293Z" fill="#8AA3BD"/>
<path d="M90.5996 60.894C91.6157 58.4665 93.6303 56.7715 94.9412 54.325C96.1051 52.1541 96.535 49.231 97.9245 47.0693C91.5768 47.1888 85.2553 49.6114 80.3267 54.3688C77.9212 56.6923 76.065 59.3702 74.7505 62.2332C79.7901 60.131 85.3451 59.6997 90.5996 60.894Z" fill="#8AA3BD"/>
<path d="M163.355 35.4427C163.357 35.4477 163.359 35.4505 163.363 35.4555C163.664 34.9372 163.949 34.4203 164.238 33.9027C164.381 33.6467 164.532 33.3914 164.67 33.1369C164.691 33.098 164.716 33.0598 164.737 33.0223L164.733 33.0167C165.233 32.0932 165.703 31.1725 166.161 30.2505C166.161 30.2505 166.161 30.2505 166.159 30.2497C166.152 30.2625 166.148 30.2745 166.142 30.2865C164.05 23.837 160.451 20.3517 156.616 16.3777C152.778 12.4017 148.789 9.06265 143.612 6.94775C142.777 7.32745 141.939 7.71275 141.102 8.12575C141.102 8.12575 141.1 8.12365 141.098 8.12295C140.277 8.52665 139.456 8.94455 138.637 9.38155L138.644 9.38865C130.321 13.8081 121.988 19.8136 114.248 27.2877C112.16 29.3036 110.184 31.3691 108.307 33.4664C108.712 34.1233 109.219 34.8325 109.795 35.582L108.39 36.9871C107.57 36.5451 106.816 36.1852 106.158 35.9363C103.086 39.5779 100.341 43.3072 97.9245 47.0676C94.9688 51.6694 92.5173 56.313 90.5996 60.8922C90.3033 61.6014 90.0163 62.3086 89.7461 63.0128C89.7695 62.9952 89.7949 62.9754 89.8183 62.9563C91.9198 64.2234 95.0402 67.4386 98.131 70.3229C99.4788 68.7305 102.238 66.595 103.899 64.9906C109.736 59.3543 112.23 57.7117 116.135 56.7903C115.075 60.6589 112.459 62.8735 106.623 68.5099C104.937 70.1355 102.736 72.435 101.075 73.7389C103.09 76.211 105.976 80.006 107.685 82.323C108.575 82.024 109.467 81.705 110.365 81.367C115.009 79.6093 119.736 77.3233 124.437 74.5302C128.184 72.3021 131.914 69.7678 135.572 66.9139C134.988 65.714 134.359 64.5501 133.711 63.4024L134.386 62.7265C135.236 63.7638 136.086 64.8032 136.909 65.8688C139.163 64.0042 142.604 61.011 144.778 58.9137C152.43 51.5245 158.664 43.5066 163.355 35.4427Z" fill="#EFF4F3"/>
<path d="M133.596 31.5956C131.431 33.6844 131.372 37.1408 133.458 39.3052C135.551 41.4697 139.006 41.5298 141.172 39.4417C143.335 37.3536 143.394 33.8951 141.306 31.7307C139.218 29.5676 135.758 29.5068 133.596 31.5956Z" fill="white"/>
<path d="M164.735 33.0206C164.294 33.8316 163.835 34.6441 163.363 35.453C154.279 23.4117 143.286 13.4054 138.633 9.38126C139.452 8.94426 140.273 8.52636 141.094 8.12256C146.065 12.4827 156.136 21.8285 164.735 33.0206ZM108.307 33.4668C108.258 33.4229 108.198 33.3706 108.149 33.3275C107.103 33.8422 106.057 34.3775 105.01 34.934C105.363 35.2409 105.749 35.5789 106.159 35.936C112.419 41.4351 124.881 53.0374 135.575 66.9129C135.913 67.3485 136.252 67.7798 136.584 68.2196C137.185 67.1858 137.776 66.1499 138.336 65.1126C138.27 65.0249 138.198 64.9415 138.132 64.8531C127.281 50.7916 114.665 39.0529 108.307 33.4668Z" fill="#2F2F2F"/>
<path d="M143.028 30.0686C140.022 26.9552 135.044 26.8675 131.932 29.872C128.818 32.8793 128.731 37.8574 131.737 40.9686C134.742 44.0827 139.72 44.169 142.834 41.1631C145.947 38.1572 146.034 33.1813 143.028 30.0686ZM133.458 39.3055C131.372 37.1411 131.431 33.6847 133.596 31.5959C135.759 29.5071 139.218 29.5679 141.305 31.7303C143.395 33.8961 143.334 37.3532 141.171 39.4413C139.006 41.5301 135.551 41.47 133.458 39.3055Z" fill="#8AA3BD"/>
<path d="M173.341 6.05341C173.347 5.97851 173.355 5.90351 173.36 5.82781C173.391 5.36541 173.41 4.90931 173.428 4.45321C173.432 4.32881 173.442 4.20291 173.444 4.08061C173.457 3.65771 173.458 3.24051 173.456 2.82261C173.456 2.67561 173.461 2.52491 173.459 2.37721C173.455 1.82141 173.438 1.26841 173.409 0.721106C172.859 0.671606 172.305 0.634806 171.746 0.610106C171.64 0.604406 171.529 0.604405 171.42 0.602305C170.961 0.585305 170.503 0.569806 170.038 0.567006C169.952 0.566306 169.866 0.569106 169.781 0.569806C169.284 0.570506 168.789 0.574706 168.286 0.591006C168.248 0.593106 168.209 0.596005 168.171 0.596705C160.575 0.870305 152.161 3.04751 143.606 6.94651C147.527 10.5018 151.426 14.2615 155.267 18.2376C159.1 22.2115 162.726 26.2427 166.14 30.2867C170.025 22.4958 172.434 14.7784 173.198 7.66001C173.2 7.64651 173.2 7.63241 173.203 7.62111C173.259 7.09431 173.303 6.57381 173.341 6.05341ZM102.289 73.72C103.951 72.4168 105.65 70.9411 107.336 69.3147C113.172 63.6798 117.248 57.7875 118.309 53.9182C114.404 54.8388 108.375 58.7074 102.538 64.3437C100.877 65.9482 99.3647 67.5703 98.0177 69.1634C94.9262 66.2798 91.9224 64.2207 89.8209 62.9536C89.7975 62.9727 89.7721 62.9925 89.7488 63.0102C88.0687 64.3353 86.3794 65.6809 84.6724 67.0555C86.8786 68.3297 90.523 70.7155 94.1965 74.2899C92.8954 76.3292 91.9882 78.1953 91.566 79.7375C93.1075 79.374 94.9835 78.5446 97.0447 77.3333C99.4976 80.2063 101.796 83.6341 103.489 87.6801C104.959 85.9831 106.414 84.2941 107.832 82.6241C107.786 82.5211 107.733 82.4241 107.686 82.3221C106.183 79.0544 104.305 76.192 102.289 73.72Z" fill="#8AA3BD"/>
</g>
</g>
<defs>
<clipPath id="clip0_633_851">
<rect width="174" height="173" fill="white"/>
</clipPath>
</defs>
</svg>
