<svg width="24" height="24" viewBox="0 0 24 24" fill="none" xmlns="http://www.w3.org/2000/svg">
<g clip-path="url(#clip0_236_1133)">
<path d="M24 12C24 18.64 18.64 24 12 24C5.36 24 0 18.64 0 12C0 6.24 4.04 1.44 9.48 0.28H9.8L10.04 0.16C10.24 0.12 10.44 0.12 10.64 0.08H11.04L11.36 0H11.52L12 0.08L12.32 0H12.48L13.12 0.16L13.88 0.12C13.96 0.12 14.08 0.16 14.16 0.16L17.04 2L20.16 3.2C22.52 5.4 24 8.52 24 12Z" fill="#008DB3"/>
<path d="M12.6001 3.79999C13.4001 4.03999 13.3601 3.55999 13.8401 4.11999C14.1201 4.43999 14.6401 5.03999 15.2401 5.19999C15.3201 5.23999 15.5201 5.03999 15.5201 4.87999C15.5201 4.71999 15.0801 4.43999 14.8401 4.35999C14.6001 4.27999 14.9201 3.83999 14.6001 3.71999C14.2801 3.59999 13.9201 3.07999 13.8001 2.67999C13.6801 2.27999 13.1201 2.59999 12.9201 2.51999C12.7201 2.43999 12.4801 2.47999 12.2801 2.79999C12.0801 3.11999 12.4001 3.71999 12.6001 3.79999Z" fill="#FFC942"/>
<path d="M16.8002 15.08C16.8002 14.92 15.2402 14.08 15.0802 14.04C14.7602 14.04 14.3602 13.88 14.0802 14.04C13.9602 14.12 13.8402 14.2 13.8002 14.32C13.7602 14.4 13.4402 14.24 13.3202 14.28C13.0402 14.44 12.8802 13.96 12.9602 13.76C13.1602 13.32 12.4802 13.6 12.4002 13.48C12.4802 13.64 12.3602 12.2 12.1202 13C11.9202 13.6 11.2402 12.92 11.3202 12.48C11.4402 11.8 12.4802 11.68 12.7202 11.8C12.8402 11.88 13.2402 12.48 13.3202 12.44C13.4402 12.4 13.2402 11.72 13.2402 11.64C13.1602 11.32 13.8002 11.2 13.8402 10.84C13.8802 10.56 14.0802 10.64 14.2802 10.48C14.5602 10.24 14.3602 9.83998 14.7202 9.59998C14.8402 9.51998 15.3202 9.47998 15.3602 9.31998C15.4002 9.19998 14.9602 8.87998 15.3602 8.75998C15.7202 8.67998 16.0802 8.83998 16.1602 8.31998C16.2402 7.87998 15.7202 7.75998 15.6002 7.39998C15.5602 7.27998 15.4802 6.67998 15.2802 6.79998C15.0002 6.95998 14.8402 7.27998 14.6402 6.87998C14.2402 6.15998 13.2802 5.83998 13.7202 6.99998C13.9602 7.59998 13.0802 9.39998 12.9602 7.71998C12.9202 7.15998 11.2002 6.95998 11.7602 6.31998C12.3602 5.67998 13.1602 5.63998 13.3602 4.63998C13.6802 3.23998 12.7202 4.43998 12.2002 4.15998C11.4802 3.75998 12.0802 3.95998 11.7202 4.47998C11.5602 4.67998 11.1202 4.35998 10.8802 4.39998C10.6802 4.43998 10.2002 4.83998 10.0402 4.59998C9.80025 4.11998 8.08024 3.79998 7.60024 3.99998C6.64024 4.35998 6.28024 3.87998 5.32024 3.67998C5.00024 3.59998 3.32024 3.55998 3.44024 4.11998C3.48024 4.35998 3.64024 4.51998 3.72024 4.71998C3.84024 5.03998 3.36024 4.79998 3.24024 4.87998C3.20024 4.91998 3.80024 5.31998 3.84024 5.35998C4.00024 5.51998 3.24024 5.71998 3.16024 5.99998C3.00024 6.55998 4.20024 6.39998 4.00024 7.03998C3.92024 7.23998 3.24024 7.55998 3.16024 8.23998C3.16024 8.35998 4.00024 7.39998 4.56024 7.59998C5.04024 7.75998 5.00024 6.43998 5.64024 6.43998C6.80025 6.43998 7.00024 7.55998 7.60024 8.31998C7.88024 8.67998 8.12024 8.79998 8.16024 9.27998C8.20024 9.71998 8.12024 10.24 8.28024 10.64C8.44024 11.04 8.72024 11.04 8.92024 11.36C9.16024 11.72 9.28024 12.08 9.60024 12.4C10.0802 12.88 10.8402 13.56 11.5602 13.48C11.7202 13.44 12.2402 13.76 12.3602 13.84C12.5602 14 12.6402 14.2 12.8002 14.4C12.9202 14.56 13.3202 14.48 13.5202 14.56C13.6802 14.64 13.1202 15.84 13.3202 16.16C13.5602 16.52 13.5602 16.88 13.9202 17.16C14.2402 17.4 14.3602 17.44 14.4002 17.88C14.4802 18.6 14.2402 19.36 14.0802 20.04C14.0002 20.4 14.1602 20.8 14.0402 21.12C13.8802 21.52 13.7602 21.88 13.9202 22.36C14.1602 23.16 15.6402 23.28 14.7602 22.6C14.4002 22.32 15.1602 21.56 14.9202 21.52C14.5202 21.36 15.0002 21.2 15.0402 21C15.1602 20.64 16.7602 19.2 16.8802 18.96C17.0002 18.76 16.9202 18.56 17.0802 18.36C17.2802 18.16 17.5202 18.24 17.7202 18.08C18.1602 17.8 18.0002 17.32 18.1602 16.92C18.5202 16.12 18.6402 16.44 18.1602 15.84C18.0002 15.64 16.8402 15.72 16.8002 15.08Z" fill="#FFC942"/>
<path d="M8.16023 3.24001C8.44023 3.56001 8.76023 3.08001 8.80023 3.24001C8.84023 3.40001 8.84023 3.72001 9.20023 3.72001C9.56023 3.72001 8.88023 3.96001 9.08023 4.08001C9.32023 4.16001 9.80023 4.48001 9.96023 4.36001C10.1202 4.24001 10.3602 4.12001 10.4402 4.24001C10.5202 4.32001 11.0002 4.24001 10.8802 4.08001C10.7602 3.92001 10.3602 3.52001 10.4002 3.32001C10.4002 3.08001 10.8402 2.52001 10.3602 2.60001C10.0802 2.56001 10.0002 2.84001 10.0002 3.00001C10.0002 3.16001 9.56023 2.76001 9.48023 2.76001C9.40023 2.76001 9.08023 2.28001 8.96023 2.28001C8.84023 2.28001 8.08023 2.04001 8.16023 2.28001C8.24023 2.52001 7.88023 2.92001 8.16023 3.24001Z" fill="#FFC942"/>
<path d="M14.9604 5.55999C14.7204 5.43999 14.2804 4.83999 14.1204 5.03999C13.9204 5.23999 14.1604 5.67999 14.3204 5.87999C14.4804 6.07999 15.1604 6.47998 15.0804 6.31999C15.0004 6.15999 15.4004 5.79999 14.9604 5.55999Z" fill="#FFC942"/>
<path d="M8.60039 1.43999C8.72039 1.43999 8.92039 1.83999 9.08039 1.87999C9.24039 1.91999 9.32039 2.11999 9.40039 2.15999C9.48039 2.19999 10.2004 1.91999 10.3604 1.87999C10.5604 1.79999 10.1604 1.39999 10.0004 1.11999C9.88039 0.839992 10.0004 1.59999 9.76039 1.47999C9.52039 1.35999 9.60039 1.19999 9.36039 1.19999C9.12039 1.19999 9.28039 0.679992 8.96039 0.799992C8.64039 0.919992 8.48039 1.43999 8.60039 1.43999Z" fill="#FFC942"/>
<path d="M11.2001 2.39998C11.0001 2.43998 11.0401 2.59998 10.9201 2.71998C10.8001 2.83998 10.8001 2.99998 10.9201 3.15998C11.0401 3.31998 11.2001 3.55998 11.3201 3.31998C11.4401 3.07998 11.3201 2.87998 11.3201 2.71998C11.3201 2.55998 11.3201 2.35998 11.2001 2.39998Z" fill="#FFC942"/>
<path d="M11.6403 3.15999C11.6803 3.27999 11.8003 2.91999 12.0003 2.75999C12.2003 2.55999 11.8803 2.11999 11.7203 2.35999C11.5603 2.47999 11.6003 3.03999 11.6403 3.15999Z" fill="#FFC942"/>
<path d="M11.6003 3.31998C11.4803 3.47998 11.4003 3.87998 11.6003 3.91998C11.8003 3.95998 11.9203 3.71998 11.8403 3.55998C11.7603 3.39998 11.6403 3.23998 11.6003 3.31998Z" fill="#FFC942"/>
<path d="M12.4003 0.599992C12.2003 0.679991 12.6803 0.839992 12.3603 0.919991C12.0403 0.999992 12.0403 1.27999 11.7603 1.03999C11.4803 0.799991 11.1603 1.11999 11.4003 1.23999C11.6403 1.35999 11.9603 1.71999 11.9603 1.87999C11.9603 2.07999 12.2803 2.15999 12.6003 2.11999C12.9203 2.07999 13.3203 2.19999 13.3203 2.03999C13.3203 1.87999 13.3603 1.83999 13.3203 1.71999C13.2803 1.55999 13.1203 1.39999 12.8003 1.55999C12.4803 1.67999 12.2403 1.63999 12.2003 1.47999C12.1603 1.31999 12.8403 0.999991 13.1603 1.23999C13.4803 1.43999 13.7603 1.11999 13.5203 0.959991C13.2803 0.799991 13.4403 0.639991 13.6003 0.639991C13.7203 0.639991 13.8003 0.319991 13.8803 0.119991C13.4003 0.0399914 12.9203 -8.54209e-06 12.4403 -0.0400085C12.4803 0.319991 12.6003 0.519991 12.4003 0.599992Z" fill="#FFC942"/>
<path d="M9.56047 0.320004C9.76047 0.400004 10.1205 0.320004 10.0805 0.160004L9.48047 0.280004C9.48047 0.280004 9.52047 0.320004 9.56047 0.320004Z" fill="#FFC942"/>
<path d="M9.68029 0.479991C9.36029 0.319991 9.40029 0.719991 9.52029 0.839991C9.64029 0.959991 10.0803 0.679991 9.68029 0.479991Z" fill="#FFC942"/>
<path d="M11.52 0C11.76 0.04 11.88 0.2 11.92 0.36C12 0.48 12.32 0.2 12.32 0H11.52Z" fill="#FFC942"/>
<path d="M10.8801 0.439978C10.7601 0.639978 10.8801 0.839978 11.0401 0.679978C11.2001 0.479978 11.0801 -2.19829e-05 11.2001 0.239978C11.3201 0.439978 11.5601 0.759978 11.7201 0.799978C11.8801 0.799978 11.7601 0.599978 11.7201 0.439978C11.7201 0.279978 11.3201 0.119978 11.3601 0.039978C11.1201 0.039978 10.8801 0.0799781 10.6401 0.0799781C10.8001 0.199978 11.0001 0.319978 10.8801 0.439978Z" fill="#FFC942"/>
<path d="M11.6002 2.07999C11.8002 2.15999 11.6002 1.67999 11.6002 1.67999C11.4002 1.79999 11.4002 1.99999 11.6002 2.07999Z" fill="#FFC942"/>
<path d="M10.9202 1.76C10.9602 1.88 11.1602 1.92 11.2802 1.76C11.4002 1.6 11.2802 0.960003 11.1202 1.16C10.9602 1.36 10.8002 1.28 10.4802 1.16C10.1602 1.04 10.8802 1.64 10.9202 1.76Z" fill="#FFC942"/>
<path d="M13.0404 12.8C13.3204 12.76 13.4804 13.08 13.7604 13.08C14.0404 13.08 14.5204 13.52 14.7604 13.24C14.9604 13.04 13.8404 12.84 13.4804 12.64C13.0804 12.44 12.7604 12.84 13.0404 12.8Z" fill="#FFC942"/>
<path d="M14.3604 0.639982C14.7204 0.799982 14.6804 0.799982 14.4404 0.999982C14.2004 1.19998 14.2804 1.55998 14.8004 1.51998C15.3204 1.47998 15.6004 0.999982 15.8404 1.67998C16.0804 2.39998 15.9204 3.15998 16.2004 3.35998C16.4804 3.55998 16.2404 3.71998 16.2004 3.91998C16.1604 4.11998 16.2804 4.27998 16.5204 4.19998C16.7604 4.11998 16.6804 4.55998 16.5204 4.71998C16.3604 4.87998 16.1604 5.23998 16.6804 5.83998C17.2004 6.43998 17.2404 6.35998 17.4004 6.59998C17.5604 6.79998 17.6804 6.51998 17.7204 6.27998C17.7604 6.03998 17.5604 5.19998 18.1604 5.19998C18.7204 5.19998 18.8804 4.75998 18.9604 4.59998C19.0404 4.43998 19.4804 4.47998 19.7204 4.27998C19.9204 4.07998 20.1604 3.91998 20.2004 3.19998C18.5604 1.67998 16.5204 0.639982 14.2404 0.199982C14.1604 0.359982 14.1604 0.559982 14.3604 0.639982Z" fill="#FFC942"/>
</g>
<defs>
<clipPath id="clip0_236_1133">
<rect width="24" height="24" fill="white"/>
</clipPath>
</defs>
</svg>
