<svg width="21" height="21" viewBox="0 0 21 21" fill="none" xmlns="http://www.w3.org/2000/svg">
<g clip-path="url(#clip0_492_473)">
<path d="M12.8516 14.5197L14.1229 13.2454L15.0876 14.2133L13.8166 15.4874L12.8516 14.5197Z" fill="#B0BDC6"/>
<path d="M13.1582 14.2134L13.8173 13.5525L14.7827 14.5194L14.1236 15.1803L13.1582 14.2134Z" fill="#DFE9EF"/>
<path d="M12.8286 14.5181L14.0996 13.2434L14.4997 13.6446L13.2287 14.9196L12.8286 14.5181Z" fill="#B0BDC6"/>
<path d="M13.6758 3.17854C10.6798 0.174536 5.78636 0.174536 2.75706 3.17854C-0.272231 6.18255 -0.238942 11.0891 2.75706 14.1265C5.75307 17.1305 10.6465 17.1305 13.6758 14.1265C16.7051 11.0891 16.7051 6.18255 13.6758 3.17854ZM12.9768 13.3922C10.3469 16.029 6.11925 16.029 3.52271 13.3922C0.892882 10.7553 0.892882 6.51632 3.52271 3.91285C6.15254 1.276 10.3802 1.276 12.9768 3.91285C15.5733 6.51632 15.5733 10.7553 12.9768 13.3922Z" fill="#333333"/>
<path d="M13.1431 3.71252C10.4467 1.00891 6.05253 1.00891 3.32284 3.71252C0.626436 6.41612 0.626436 10.822 3.32284 13.559C6.01925 16.2626 10.4134 16.2626 13.1431 13.559C15.8395 10.8554 15.8395 6.4495 13.1431 3.71252ZM12.7769 13.1918C10.2802 15.6952 6.18569 15.6952 3.68902 13.1918C1.19235 10.6885 1.19235 6.58301 3.68902 4.07967C6.18569 1.57634 10.2802 1.57634 12.7769 4.07967C15.2736 6.58301 15.2736 10.6885 12.7769 13.1918Z" fill="#B0BDC6"/>
<path opacity="0.6" d="M11.8782 10.1879C9.71442 12.3575 6.1858 12.3575 4.02201 10.1879C3.4561 9.62049 3.02335 8.95294 2.75703 8.21862C2.62388 9.82076 3.1565 11.4563 4.3549 12.6579C6.51869 14.8274 10.0473 14.8274 12.2111 12.6579C13.809 11.0557 14.2084 8.71929 13.4761 6.75C13.3429 8.01836 12.8103 9.21996 11.8782 10.1879Z" fill="#A6AEB0"/>
<path d="M13.1365 15.8604L15.4434 13.5474L20.0339 18.1498L17.727 20.4629L13.1365 15.8604Z" fill="#333333"/>
<path d="M13.6548 15.3414L14.9254 14.0664L19.516 18.6682L18.2453 19.9429L13.6548 15.3414Z" fill="#575B5E"/>
<path d="M20.4666 17.8982C20.8328 18.2654 17.8701 21.2694 17.4706 20.9022L17.2376 20.6686C16.8714 20.3014 19.8341 17.2974 20.2336 17.6646L20.4666 17.8982Z" fill="#B0BDC6"/>
<path d="M19.9673 18.3987C20.3334 18.7659 18.3694 20.7686 17.9699 20.4014L17.7369 20.1678C17.3707 19.8006 19.3348 17.7979 19.7342 18.1651L19.9673 18.3987Z" fill="#DFE9EF"/>
</g>
<defs>
<clipPath id="clip0_492_473">
<rect width="20" height="20" fill="white" transform="translate(0.5 0.935547)"/>
</clipPath>
</defs>
</svg>
