<svg width="20" height="16" viewBox="0 0 20 16" fill="none" xmlns="http://www.w3.org/2000/svg">
<g clip-path="url(#clip0_283_765)">
<path fill-rule="evenodd" clip-rule="evenodd" d="M20 1.14286C20 1.44596 19.8829 1.73665 19.6746 1.95098C19.4662 2.16531 19.1836 2.28571 18.8889 2.28571H1.11111C0.816426 2.28571 0.533811 2.16531 0.325437 1.95098C0.117063 1.73665 0 1.44596 0 1.14286C0 0.839753 0.117063 0.549062 0.325437 0.334735C0.533811 0.120408 0.816426 0 1.11111 0H18.8889C19.1836 0 19.4662 0.120408 19.6746 0.334735C19.8829 0.549062 20 0.839753 20 1.14286ZM20 8C20 8.3031 19.8829 8.59379 19.6746 8.80812C19.4662 9.02245 19.1836 9.14286 18.8889 9.14286H1.11111C0.816426 9.14286 0.533811 9.02245 0.325437 8.80812C0.117063 8.59379 0 8.3031 0 8C0 7.6969 0.117063 7.40621 0.325437 7.19188C0.533811 6.97755 0.816426 6.85714 1.11111 6.85714H18.8889C19.1836 6.85714 19.4662 6.97755 19.6746 7.19188C19.8829 7.40621 20 7.6969 20 8ZM18.8889 16C19.1836 16 19.4662 15.8796 19.6746 15.6653C19.8829 15.4509 20 15.1602 20 14.8571C20 14.554 19.8829 14.2633 19.6746 14.049C19.4662 13.8347 19.1836 13.7143 18.8889 13.7143H1.11111C0.816426 13.7143 0.533811 13.8347 0.325437 14.049C0.117063 14.2633 0 14.554 0 14.8571C0 15.1602 0.117063 15.4509 0.325437 15.6653C0.533811 15.8796 0.816426 16 1.11111 16H18.8889Z" fill="#86878B"/>
</g>
<defs>
<clipPath id="clip0_283_765">
<rect width="20" height="16" fill="white"/>
</clipPath>
</defs>
</svg>
