<svg width="16" height="17" viewBox="0 0 16 17" fill="none" xmlns="http://www.w3.org/2000/svg">
<g clip-path="url(#clip0_250_1471)">
<path d="M16 1.525C16 1.025 15.475 0.5 14.925 0.5H8.075C7.525 0.5 7 1.025 7 1.525V15.45C7 15.975 7.525 16.475 8.075 16.475H14.95C15.475 16.475 16.025 15.95 16.025 15.45V1.525H16Z" fill="#5C6D6D"/>
<path d="M15.75 15.25C15.75 15.75 15.25 16.25 14.75 16.25H8.25C7.75 16.25 7.25 15.75 7.25 15.25V1.75C7.25 1.25 7.75 0.75 8.25 0.75H14.75C15.25 0.75 15.75 1.25 15.75 1.75V15.25Z" fill="#212528"/>
<path d="M14.375 1.875C14.5131 1.875 14.625 1.76307 14.625 1.625C14.625 1.48693 14.5131 1.375 14.375 1.375C14.2369 1.375 14.125 1.48693 14.125 1.625C14.125 1.76307 14.2369 1.875 14.375 1.875Z" fill="#94989B"/>
<path d="M12.25 1.625C12.25 1.7 12.225 1.75 12.175 1.75H10.825C10.775 1.75 10.75 1.7 10.75 1.625C10.75 1.575 10.775 1.5 10.825 1.5H12.175C12.225 1.5 12.25 1.575 12.25 1.625Z" fill="#94989B"/>
<path d="M7.75 2.5H15.25V14.5H7.75V2.5Z" fill="#3E4347"/>
<path d="M12.4498 15.55C12.4498 15.65 12.3748 15.75 12.2498 15.75H10.7498C10.6498 15.75 10.5498 15.675 10.5498 15.55V15.175C10.5498 15.075 10.6248 14.975 10.7498 14.975H12.2498C12.3498 14.975 12.4498 15.05 12.4498 15.175V15.55Z" fill="#94989B"/>
<path d="M9.4999 4.17502C9.4999 4.30002 9.3999 4.37502 9.2999 4.37502H8.4749C8.3499 4.37502 8.2749 4.27502 8.2749 4.17502V3.35002C8.2749 3.22502 8.3749 3.15002 8.4749 3.15002H9.2999C9.4249 3.15002 9.4999 3.25002 9.4999 3.35002V4.17502Z" fill="#42ADE2"/>
<path d="M11.2499 4.17502C11.2499 4.30002 11.1499 4.37502 11.0499 4.37502H10.2249C10.0999 4.37502 10.0249 4.27502 10.0249 4.17502V3.35002C10.0249 3.22502 10.1249 3.15002 10.2249 3.15002H11.0499C11.1749 3.15002 11.2499 3.25002 11.2499 3.35002V4.17502Z" fill="#C7E755"/>
<path d="M12.9999 4.17502C12.9999 4.30002 12.8999 4.37502 12.7999 4.37502H11.9749C11.8499 4.37502 11.7749 4.27502 11.7749 4.17502V3.35002C11.7749 3.22502 11.8749 3.15002 11.9749 3.15002H12.7999C12.9249 3.15002 12.9999 3.25002 12.9999 3.35002V4.17502Z" fill="#F2B200"/>
<path d="M14.7499 4.17502C14.7499 4.30002 14.6499 4.37502 14.5499 4.37502H13.7249C13.5999 4.37502 13.5249 4.27502 13.5249 4.17502V3.35002C13.5249 3.22502 13.6249 3.15002 13.7249 3.15002H14.5499C14.6749 3.15002 14.7499 3.25002 14.7499 3.35002V4.17502Z" fill="#42ADE2"/>
<path d="M9.4999 13.8C9.4999 13.925 9.3999 14 9.2999 14H8.4749C8.3499 14 8.2749 13.9 8.2749 13.8V12.975C8.2749 12.85 8.3749 12.775 8.4749 12.775H9.2999C9.4249 12.775 9.4999 12.875 9.4999 12.975V13.8Z" fill="#C7E755"/>
<path d="M11.2499 13.8C11.2499 13.925 11.1499 14 11.0499 14H10.2249C10.0999 14 10.0249 13.9 10.0249 13.8V12.975C10.0249 12.85 10.1249 12.775 10.2249 12.775H11.0499C11.1749 12.775 11.2499 12.875 11.2499 12.975V13.8Z" fill="#FF435E"/>
<path d="M12.9999 13.8C12.9999 13.925 12.8999 14 12.7999 14H11.9749C11.8499 14 11.7749 13.9 11.7749 13.8V12.975C11.7749 12.85 11.8749 12.775 11.9749 12.775H12.7999C12.9249 12.775 12.9999 12.875 12.9999 12.975V13.8Z" fill="#42ADE2"/>
<path d="M14.7499 13.8C14.7499 13.925 14.6499 14 14.5499 14H13.7249C13.5999 14 13.5249 13.9 13.5249 13.8V12.975C13.5249 12.85 13.6249 12.775 13.7249 12.775H14.5499C14.6749 12.775 14.7499 12.875 14.7499 12.975V13.8Z" fill="#C28FEF"/>
<path d="M9.4999 8.97501C9.4999 9.10001 9.3999 9.17501 9.2999 9.17501H8.4749C8.3499 9.17501 8.2749 9.07501 8.2749 8.97501V8.15001C8.2749 8.02501 8.3749 7.95001 8.4749 7.95001H9.2999C9.4249 7.95001 9.4999 8.05001 9.4999 8.15001V8.97501Z" fill="#C7E755"/>
<path d="M11.2499 8.97501C11.2499 9.10001 11.1499 9.17501 11.0499 9.17501H10.2249C10.0999 9.17501 10.0249 9.07501 10.0249 8.97501V8.15001C10.0249 8.02501 10.1249 7.95001 10.2249 7.95001H11.0499C11.1749 7.95001 11.2499 8.05001 11.2499 8.15001V8.97501Z" fill="#C28FEF"/>
<path d="M12.9999 8.97501C12.9999 9.10001 12.8999 9.17501 12.7999 9.17501H11.9749C11.8499 9.17501 11.7749 9.07501 11.7749 8.97501V8.15001C11.7749 8.02501 11.8749 7.95001 11.9749 7.95001H12.7999C12.9249 7.95001 12.9999 8.05001 12.9999 8.15001V8.97501Z" fill="#42ADE2"/>
<path d="M9.4999 7.37498C9.4999 7.49998 9.3999 7.57498 9.2999 7.57498H8.4749C8.3499 7.57498 8.2749 7.47498 8.2749 7.37498V6.54998C8.2749 6.42498 8.3749 6.34998 8.4749 6.34998H9.2999C9.4249 6.34998 9.4999 6.44998 9.4999 6.54998V7.37498Z" fill="#FF435E"/>
<path d="M11.2499 7.37498C11.2499 7.49998 11.1499 7.57498 11.0499 7.57498H10.2249C10.0999 7.57498 10.0249 7.47498 10.0249 7.37498V6.54998C10.0249 6.42498 10.1249 6.34998 10.2249 6.34998H11.0499C11.1749 6.34998 11.2499 6.44998 11.2499 6.54998V7.37498Z" fill="#F2B200"/>
<path d="M12.9999 7.37498C12.9999 7.49998 12.8999 7.57498 12.7999 7.57498H11.9749C11.8499 7.57498 11.7749 7.47498 11.7749 7.37498V6.54998C11.7749 6.42498 11.8749 6.34998 11.9749 6.34998H12.7999C12.9249 6.34998 12.9999 6.44998 12.9999 6.54998V7.37498Z" fill="#C7E755"/>
<path d="M14.7499 7.37498C14.7499 7.49998 14.6499 7.57498 14.5499 7.57498H13.7249C13.5999 7.57498 13.5249 7.47498 13.5249 7.37498V6.54998C13.5249 6.42498 13.6249 6.34998 13.7249 6.34998H14.5499C14.6749 6.34998 14.7499 6.44998 14.7499 6.54998V7.37498Z" fill="#F2B200"/>
<path d="M9.4999 5.775C9.4999 5.9 9.3999 5.975 9.2999 5.975H8.4749C8.3499 5.975 8.2749 5.875 8.2749 5.775V4.95C8.2749 4.825 8.3749 4.75 8.4749 4.75H9.2999C9.4249 4.75 9.4999 4.85 9.4999 4.95V5.775Z" fill="#C28FEF"/>
<path d="M11.2499 5.775C11.2499 5.9 11.1499 5.975 11.0499 5.975H10.2249C10.0999 5.975 10.0249 5.875 10.0249 5.775V4.95C10.0249 4.825 10.1249 4.75 10.2249 4.75H11.0499C11.1749 4.75 11.2499 4.85 11.2499 4.95V5.775Z" fill="#42ADE2"/>
<path d="M12.9999 5.775C12.9999 5.9 12.8999 5.975 12.7999 5.975H11.9749C11.8499 5.975 11.7749 5.875 11.7749 5.775V4.95C11.7749 4.825 11.8749 4.75 11.9749 4.75H12.7999C12.9249 4.75 12.9999 4.85 12.9999 4.95V5.775Z" fill="#FF435E"/>
<path d="M14.7499 5.775C14.7499 5.9 14.6499 5.975 14.5499 5.975H13.7249C13.5999 5.975 13.5249 5.875 13.5249 5.775V4.95C13.5249 4.825 13.6249 4.75 13.7249 4.75H14.5499C14.6749 4.75 14.7499 4.85 14.7499 4.95V5.775Z" fill="#C28FEF"/>
<path d="M9 8.49998L4.225 3.72498V5.97498H0V11.025H4.225V13.275L9 8.49998Z" fill="#F2B200"/>
</g>
<defs>
<clipPath id="clip0_250_1471">
<rect width="16" height="16" fill="white" transform="translate(0 0.5)"/>
</clipPath>
</defs>
</svg>
