<svg width="24" height="24" viewBox="0 0 24 24" fill="none" xmlns="http://www.w3.org/2000/svg">
<g clip-path="url(#clip0_235_958)">
<path d="M12 24C18.6274 24 24 18.6274 24 12C24 5.37258 18.6274 0 12 0C5.37258 0 0 5.37258 0 12C0 18.6274 5.37258 24 12 24Z" fill="#FFE8A6"/>
<path d="M19.1999 16.08C20.7463 16.08 21.9999 14.8264 21.9999 13.28C21.9999 11.7336 20.7463 10.48 19.1999 10.48C17.6535 10.48 16.3999 11.7336 16.3999 13.28C16.3999 14.8264 17.6535 16.08 19.1999 16.08Z" fill="#C5AD70"/>
<path d="M6.4398 17.2C7.76528 17.2 8.8398 16.1255 8.8398 14.8C8.8398 13.4745 7.76528 12.4 6.4398 12.4C5.11431 12.4 4.03979 13.4745 4.03979 14.8C4.03979 16.1255 5.11431 17.2 6.4398 17.2Z" fill="#C5AD70"/>
<path d="M8.87979 22.8C10.868 22.8 12.4798 21.1882 12.4798 19.2C12.4798 17.2118 10.868 15.6 8.87979 15.6C6.89156 15.6 5.27979 17.2118 5.27979 19.2C5.27979 21.1882 6.89156 22.8 8.87979 22.8Z" fill="#C5AD70"/>
<path d="M8.79995 7.67998C9.68361 7.67998 10.4 6.96364 10.4 6.07998C10.4 5.19633 9.68361 4.47998 8.79995 4.47998C7.9163 4.47998 7.19995 5.19633 7.19995 6.07998C7.19995 6.96364 7.9163 7.67998 8.79995 7.67998Z" fill="#C5AD70"/>
<path d="M13.9999 8.08001C14.8836 8.08001 15.5999 7.36366 15.5999 6.48001C15.5999 5.59635 14.8836 4.88 13.9999 4.88C13.1162 4.88 12.3999 5.59635 12.3999 6.48001C12.3999 7.36366 13.1162 8.08001 13.9999 8.08001Z" fill="#C5AD70"/>
<path d="M4.03994 11.16C4.9236 11.16 5.63994 10.4436 5.63994 9.55999C5.63994 8.67634 4.9236 7.95999 4.03994 7.95999C3.15629 7.95999 2.43994 8.67634 2.43994 9.55999C2.43994 10.4436 3.15629 11.16 4.03994 11.16Z" fill="#C5AD70"/>
<path d="M14.8 3.67999C15.2418 3.67999 15.6 3.32181 15.6 2.87999C15.6 2.43816 15.2418 2.07999 14.8 2.07999C14.3582 2.07999 14 2.43816 14 2.87999C14 3.32181 14.3582 3.67999 14.8 3.67999Z" fill="#C5AD70"/>
<path d="M2.43989 15.6C2.88172 15.6 3.23989 15.2418 3.23989 14.8C3.23989 14.3582 2.88172 14 2.43989 14C1.99806 14 1.63989 14.3582 1.63989 14.8C1.63989 15.2418 1.99806 15.6 2.43989 15.6Z" fill="#C5AD70"/>
<path d="M20 20C20.4418 20 20.8 19.6418 20.8 19.2C20.8 18.7582 20.4418 18.4 20 18.4C19.5581 18.4 19.2 18.7582 19.2 19.2C19.2 19.6418 19.5581 20 20 20Z" fill="#C5AD70"/>
<path d="M9.2 12.36C9.86274 12.36 10.4 11.8227 10.4 11.16C10.4 10.4972 9.86274 9.95999 9.2 9.95999C8.53726 9.95999 8 10.4972 8 11.16C8 11.8227 8.53726 12.36 9.2 12.36Z" fill="#C5AD70"/>
<path d="M5.1999 6.27999C5.64173 6.27999 5.9999 5.92182 5.9999 5.47999C5.9999 5.03816 5.64173 4.67999 5.1999 4.67999C4.75807 4.67999 4.3999 5.03816 4.3999 5.47999C4.3999 5.92182 4.75807 6.27999 5.1999 6.27999Z" fill="#C5AD70"/>
<path d="M17.6 21.84C18.4837 21.84 19.2 21.1236 19.2 20.24C19.2 19.3563 18.4837 18.64 17.6 18.64C16.7163 18.64 16 19.3563 16 20.24C16 21.1236 16.7163 21.84 17.6 21.84Z" fill="#C5AD70"/>
<path d="M8.87988 3.51999C8.87988 4.63999 9.75988 5.51999 10.8799 5.51999C11.9999 5.51999 12.8799 4.63999 12.8799 3.51999C12.8799 2.39999 11.9999 1.51999 10.8799 1.51999C9.75988 1.47999 8.87988 2.39999 8.87988 3.51999Z" fill="#C5AD70"/>
</g>
<defs>
<clipPath id="clip0_235_958">
<rect width="24" height="24" fill="white"/>
</clipPath>
</defs>
</svg>
