<svg width="16" height="17" viewBox="0 0 16 17" fill="none" xmlns="http://www.w3.org/2000/svg">
<g clip-path="url(#clip0_250_1520)">
<path d="M6.12511 9.375C4.45011 11.225 0.725112 15.725 0.150112 16.275C0.150112 16.275 0.125112 16.275 0.125112 16.3C-0.0998881 16.525 -0.0248881 16.6 0.200112 16.375C0.700112 15.875 5.25011 12.075 7.10011 10.4L6.12511 9.375Z" fill="#D0D0D0"/>
<path d="M6.11523 7.57451L11.7185 1.97076L14.5827 4.83451L8.97873 10.4383L6.11523 7.57451Z" fill="#C94747"/>
<path d="M10.9001 14.15C11.1251 12.2 10.2751 9.87499 8.4501 8.07499C6.6251 6.27499 4.3001 5.39999 2.3501 5.59999L10.9001 14.15Z" fill="#ED4C5C"/>
<path d="M16.0003 6.225C14.7003 6.375 13.1503 5.8 11.9253 4.575C10.7003 3.35 10.1253 1.8 10.2753 0.5L16.0003 6.225Z" fill="#ED4C5C"/>
</g>
<defs>
<clipPath id="clip0_250_1520">
<rect width="16" height="16" fill="white" transform="translate(0 0.5)"/>
</clipPath>
</defs>
</svg>
