<svg width="98" height="99" viewBox="0 0 98 99" fill="none" xmlns="http://www.w3.org/2000/svg">
<g clip-path="url(#clip0_157_573)">
<path d="M60.6598 79.4758V96.6806C57.9716 97.3375 55.1966 97.7727 52.3555 97.964C51.2462 98.0391 50.1276 98.0774 48.9999 98.0774C45.0628 98.0774 41.2351 97.6131 37.5671 96.736C37.1832 96.645 36.7994 96.5487 36.4196 96.4458C36.0397 96.3469 35.6611 96.2414 35.2852 96.1319V79.4758H60.6598Z" fill="#1D1D1D"/>
<path d="M35.416 49.3782L28.3472 69.0477L21.2786 67.4223L29.9999 47.4447C29.3528 46.1319 29.2429 44.4338 29.8328 42.7813C30.8651 39.8898 33.6417 38.2383 36.0347 39.0926C38.4276 39.9468 39.5307 42.9833 38.4985 45.8748C37.9086 47.5274 36.7481 48.772 35.416 49.3782Z" fill="#86878B"/>
<path d="M35.8864 49.8204C35.8216 49.8204 35.7561 49.8131 35.6914 49.7978C35.44 49.739 35.2314 49.5718 35.1194 49.3391L32.9289 44.792C32.8028 44.5304 32.8183 44.2264 32.9702 43.9788L37.9845 35.8004C38.1202 35.5791 38.346 35.4336 38.6035 35.4013L39.507 35.2884C39.8554 35.246 40.2019 35.4252 40.3654 35.7374L42.3564 39.5384C42.4967 39.8064 42.4833 40.1316 42.3217 40.3875L36.6035 49.4248C36.5507 49.508 36.4848 49.5806 36.4077 49.6407C36.2564 49.7586 36.0735 49.8204 35.8864 49.8204Z" fill="#252525"/>
<path d="M36.0909 48.044C36.0646 48.044 36.0381 48.0425 36.0114 48.0392C35.7649 48.0099 35.5574 47.8473 35.4701 47.6148L34.3652 44.6716C34.293 44.4792 34.3131 44.2685 34.4201 44.0935L38.816 36.9073C38.9353 36.7121 39.1431 36.5938 39.3719 36.5908C39.6102 36.5936 39.8119 36.7011 39.9366 36.8933L41.6886 39.6007C41.8334 39.8244 41.8302 40.1118 41.6805 40.3325L36.6373 47.7542C36.513 47.9373 36.3085 48.044 36.0909 48.044Z" fill="white"/>
<path d="M57.2587 36.1227C57.5204 30.5052 53.1787 25.7392 47.5612 25.4775C41.9437 25.2159 37.1777 29.5576 36.916 35.1751C36.7038 39.7309 39.5196 43.7261 43.5879 45.2133L44.9489 58.2998L55.3619 50.4135C55.3619 50.4135 53.3249 47.5543 52.3085 44.3901C55.1381 42.6965 57.0938 39.6638 57.2587 36.1227Z" fill="#86878B"/>
<path d="M37.0304 91.1923L35.9475 89.9433L37.9919 79.4758L38.989 74.3701L39.1896 73.3387L43.2296 52.6545L43.6701 49.787L44.0514 49.663L44.1 49.6472L53.0929 46.7099L53.2155 46.669L54.4817 46.2561L57.9019 49.0141L62.4615 96.2044C61.8654 96.3746 61.2653 96.5342 60.6599 96.6806C57.9717 97.3375 55.1967 97.7727 52.3556 97.964C51.2464 98.0392 50.1278 98.0774 49.0001 98.0774C45.063 98.0774 41.2353 97.6131 37.5672 96.736C36.1229 94.35 38.8163 93.2526 38.8163 93.2526L37.0304 91.1923Z" fill="#DEDEDE"/>
<path d="M44.443 52.103L44.3454 52.4961L39.1895 73.3386L39.0365 73.9598L38.989 74.37L38.3942 79.4757L37.0304 91.1922L36.4197 96.4457C36.0398 96.3468 35.6613 96.2413 35.2853 96.1318C33.4704 95.6042 31.6991 94.9737 29.9778 94.2483C30.3023 86.4597 32.7081 75.0229 32.7477 74.8316C31.1979 77.6991 20.1712 80.7869 20.1712 80.7869L15.7593 77.7057V69.0928L19.9509 63.3552L24.3642 56.0744C24.6451 55.1631 25.0646 54.5141 25.5777 54.0617C26.1264 53.575 26.7819 53.3152 27.4876 53.1991C29.6599 52.843 32.3097 53.8546 33.7923 53.8955C34.2117 53.9087 34.5389 53.8428 34.734 53.6475C34.8329 53.5486 34.9424 53.4537 35.0612 53.3627C36.5332 52.2284 39.3676 51.6612 39.3676 51.6612L43.8903 48.1448L43.9022 48.2266L44.1 49.6471L44.443 52.103Z" fill="#1D1D1D"/>
<path d="M50.9475 28.9631C49.7712 29.4527 48.3453 29.2854 47.3143 28.5367C44.7906 29.8996 41.7551 30.2859 38.9705 29.5986C38.5557 30.7 37.7197 31.6369 36.6725 32.174C36.6312 30.6493 37.1542 29.1156 38.1183 27.9336C37.2431 28.3269 36.3678 28.7203 35.4926 29.1137C36.1461 28.1697 36.7996 27.2257 37.4532 26.2818L37.6022 26.153C36.8123 25.9368 36.0224 25.7206 35.2324 25.5044C36.7261 24.7345 38.4638 24.4471 40.1259 24.695C39.8344 24.0073 39.1743 23.4892 38.4371 23.3695C40.1804 23.0005 41.9237 22.6315 43.667 22.2624L43.6073 22.4771C45.9457 21.9501 48.3518 21.4203 50.72 21.7913C53.0881 22.1622 55.442 23.6488 56.1143 25.9496L56.1255 25.8261C57.5453 25.8572 58.9334 26.5858 59.7655 27.7366C60.5976 28.8875 60.8545 30.434 60.439 31.792C59.9407 33.421 58.5436 34.8067 58.6166 36.5086L58.5526 36.5219C59.0152 39.1211 54.4686 42.9244 52.2752 44.3934C53.2046 43.96 54.3033 42.2957 54.0403 41.3044C53.7773 40.3132 56.1656 36.5865 55.1435 36.6709C54.5698 36.7183 51.4557 35.8487 51.027 34.6055C50.6658 33.558 50.3015 32.4258 50.6181 31.364C50.743 30.9451 50.9692 30.5613 51.0866 30.1402C51.2041 29.7192 51.1903 29.2193 50.8884 28.9032L50.9475 28.9631Z" fill="#1D1D1D"/>
<path d="M31.0397 68.0698L35.2857 52.5445C35.2857 52.5445 30.7117 55.6335 27.9275 50.1174L20.1716 63.1353L31.0397 68.0698Z" fill="#1D1D1D"/>
<path d="M76.6496 89.5357C75.5048 90.3204 74.3256 91.0564 73.1135 91.741L74.1159 88.9526L76.6496 89.5357Z" fill="#919191"/>
<path d="M82.1011 85.2056C80.3917 86.7738 78.5703 88.222 76.6498 89.5358C75.5049 90.3206 74.3257 91.0566 73.1137 91.7411C71.8382 92.4652 70.5271 93.1326 69.183 93.7407C69.0999 93.7789 69.0168 93.8158 68.9325 93.8527C66.8485 94.7827 64.6866 95.5701 62.4615 96.2045C61.8654 96.3746 61.2653 96.5342 60.6599 96.6807C57.9717 97.3375 55.1967 97.7728 52.3556 97.9641C51.7066 92.5166 51.0208 85.8466 50.6581 79.4759C50.1568 70.6796 50.2715 62.4559 51.9479 58.8141C51.9479 58.8141 52.6708 55.493 53.0494 52.1652C53.2868 50.0759 53.3897 47.9853 53.0929 46.7099C52.9399 46.0491 52.6787 45.6072 52.2751 45.4965C52.2751 45.4965 52.436 45.4912 52.7064 45.4951H52.7078C54.1652 45.5215 58.8186 45.8526 59.0045 49.0142L71.8025 54.3098L82.1011 85.2056Z" fill="#1D1D1D"/>
<path d="M70.3715 88.2852L69.183 93.7405C69.0999 93.7788 69.0168 93.8157 68.9325 93.8526L70.1445 88.2918L66.1785 74.0561L66.3907 73.998L70.3715 88.2852Z" fill="white"/>
</g>
<defs>
<clipPath id="clip0_157_573">
<rect width="98" height="98" fill="white" transform="translate(0 0.0773926)"/>
</clipPath>
</defs>
</svg>
