<svg width="24" height="24" viewBox="0 0 24 24" fill="none" xmlns="http://www.w3.org/2000/svg">
<g clip-path="url(#clip0_236_1113)">
<path d="M12.8 12C12.8 5.36 12.44 0 12 0C5.36 0 0 5.36 0 12C0 18.64 5.36 24 12 24C12.44 24 12.8 18.64 12.8 12Z" fill="#FFE8A6"/>
<path d="M12 0C12.44 0 12.8 5.36 12.8 12C12.8 18.64 12.44 24 12 24C18.64 24 24 18.64 24 12C24 5.36 18.64 0 12 0Z" fill="#787E84"/>
<path d="M8.88008 15.6H8.72008C8.80008 15.36 8.88008 15.08 8.88008 14.8C8.88008 13.48 7.80008 12.4 6.48008 12.4C5.16008 12.4 4.08008 13.48 4.08008 14.8C4.08008 15.96 4.88008 16.88 5.96008 17.12C5.56008 17.72 5.32008 18.4 5.32008 19.2C5.32008 21.2 6.92008 22.8 8.92008 22.8C10.9201 22.8 12.5201 21.2 12.5201 19.2C12.4801 17.24 10.8401 15.6 8.88008 15.6Z" fill="#C5AD70"/>
<path d="M8.80023 7.68C9.68023 7.68 10.4002 6.96 10.4002 6.08C10.4002 5.84 10.3202 5.6 10.2402 5.36C10.4402 5.44 10.6402 5.48 10.8802 5.48C11.6402 5.48 12.3202 5.04 12.6402 4.4C12.6002 3.6 12.5602 2.88 12.4802 2.28C12.1202 1.8 11.5202 1.44 10.8802 1.44C9.76023 1.44 8.88023 2.32 8.88023 3.44C8.88023 3.84 9.00023 4.2 9.20023 4.48C9.08023 4.44 8.96023 4.44 8.84023 4.44C7.96023 4.44 7.24023 5.16 7.24023 6.04C7.24023 6.92 7.92023 7.68 8.80023 7.68Z" fill="#C5AD70"/>
<path d="M12.7599 7.48001C12.7599 6.84001 12.7199 6.20001 12.6799 5.60001C12.5199 5.84001 12.3999 6.16001 12.3999 6.48001C12.3999 6.88001 12.5199 7.20001 12.7599 7.48001Z" fill="#C5AD70"/>
<path d="M4.03994 11.16C4.9236 11.16 5.63994 10.4436 5.63994 9.55999C5.63994 8.67634 4.9236 7.95999 4.03994 7.95999C3.15629 7.95999 2.43994 8.67634 2.43994 9.55999C2.43994 10.4436 3.15629 11.16 4.03994 11.16Z" fill="#C5AD70"/>
<path d="M2.44014 15.6C2.88196 15.6 3.24014 15.2418 3.24014 14.8C3.24014 14.3582 2.88196 14 2.44014 14C1.99831 14 1.64014 14.3582 1.64014 14.8C1.64014 15.2418 1.99831 15.6 2.44014 15.6Z" fill="#C5AD70"/>
<path d="M9.2 12.36C9.86274 12.36 10.4 11.8227 10.4 11.16C10.4 10.4972 9.86274 9.95999 9.2 9.95999C8.53726 9.95999 8 10.4972 8 11.16C8 11.8227 8.53726 12.36 9.2 12.36Z" fill="#C5AD70"/>
<path d="M5.1999 6.27999C5.64173 6.27999 5.9999 5.92182 5.9999 5.47999C5.9999 5.03816 5.64173 4.67999 5.1999 4.67999C4.75807 4.67999 4.3999 5.03816 4.3999 5.47999C4.3999 5.92182 4.75807 6.27999 5.1999 6.27999Z" fill="#C5AD70"/>
<path d="M19.1999 16.08C20.7463 16.08 21.9999 14.8264 21.9999 13.28C21.9999 11.7336 20.7463 10.48 19.1999 10.48C17.6535 10.48 16.3999 11.7336 16.3999 13.28C16.3999 14.8264 17.6535 16.08 19.1999 16.08Z" fill="#B3B3B3"/>
<path d="M14.0002 4.87997C13.4402 4.87997 12.9602 5.15997 12.6802 5.59997C12.7202 6.19997 12.7202 6.79997 12.7602 7.47997C13.0402 7.83997 13.5202 8.11997 14.0002 8.11997C14.8802 8.11997 15.6002 7.39997 15.6002 6.51997C15.6002 5.63997 14.8802 4.87997 14.0002 4.87997Z" fill="#B3B3B3"/>
<path d="M14.8 3.67999C15.2418 3.67999 15.6 3.32181 15.6 2.87999C15.6 2.43816 15.2418 2.07999 14.8 2.07999C14.3582 2.07999 14 2.43816 14 2.87999C14 3.32181 14.3582 3.67999 14.8 3.67999Z" fill="#B3B3B3"/>
<path d="M20.0002 20C20.442 20 20.8002 19.6418 20.8002 19.2C20.8002 18.7582 20.442 18.4 20.0002 18.4C19.5584 18.4 19.2002 18.7582 19.2002 19.2C19.2002 19.6418 19.5584 20 20.0002 20Z" fill="#B3B3B3"/>
<path d="M17.6 21.84C18.4837 21.84 19.2 21.1236 19.2 20.24C19.2 19.3563 18.4837 18.64 17.6 18.64C16.7163 18.64 16 19.3563 16 20.24C16 21.1236 16.7163 21.84 17.6 21.84Z" fill="#B3B3B3"/>
<path d="M12.48 2.31998C12.52 2.91998 12.6 3.63998 12.64 4.43998C12.8 4.15998 12.88 3.83998 12.88 3.51998C12.88 3.03998 12.72 2.63998 12.48 2.31998Z" fill="#B3B3B3"/>
</g>
<defs>
<clipPath id="clip0_236_1113">
<rect width="24" height="24" fill="white"/>
</clipPath>
</defs>
</svg>
