<svg width="16" height="17" viewBox="0 0 16 17" fill="none" xmlns="http://www.w3.org/2000/svg">
<g clip-path="url(#clip0_250_1508)">
<path d="M5.22493 13.225L12.7249 5.72503C13.5999 5.92503 14.5499 5.70003 15.2249 5.02503C15.8999 4.35003 16.1249 3.40003 15.9249 2.52503L13.7499 4.67503L12.2249 4.27503L11.8249 2.75003L13.9999 0.575027C13.1249 0.375027 12.1749 0.600027 11.4999 1.27503C10.8249 1.95003 10.5999 2.90003 10.7999 3.77503L3.29993 11.275C2.42493 11.075 1.47493 11.3 0.799931 11.975C-0.250069 13 -0.250069 14.7 0.774931 15.725C1.79993 16.75 3.49993 16.75 4.52493 15.725C5.19993 15.05 5.42493 14.1 5.22493 13.225ZM3.04993 15.375L1.52493 14.975L1.12493 13.45L2.24993 12.325L3.77493 12.725L4.17493 14.25L3.04993 15.375Z" fill="#94989B"/>
<path d="M7.1998 5.97499L5.7998 7.42499L4.4248 5.99999L5.7998 4.54999L7.1998 5.97499Z" fill="#3E4347"/>
<path d="M4.1749 1.77501L1.7249 4.30001C1.6249 4.40001 1.6249 4.55001 1.7249 4.62501L2.6499 5.57501L3.5749 6.52501C3.6749 6.62501 3.7999 6.62501 3.8999 6.52501L6.3499 4.00001C6.4499 3.90001 6.4499 3.75001 6.3499 3.67501L4.4999 1.77501C4.4249 1.67501 4.2749 1.67501 4.1749 1.77501Z" fill="#94989B"/>
<path d="M0.075 6.00004C-0.025 6.10004 -0.025 6.25004 0.075 6.32504L1.9 8.25004C2 8.35004 2.125 8.35004 2.225 8.25004C2.225 8.25004 2.725 7.72504 2.75 7.70004L0.6 5.47504C0.575 5.47504 0.075 6.00004 0.075 6.00004Z" fill="#94989B"/>
<path d="M2.6252 5.60002L1.7002 4.65002C1.7002 4.65002 2.0002 5.17502 1.2002 5.27502C0.875195 5.32502 0.675195 5.37502 0.575195 5.47502L2.7252 7.70002C2.8252 7.57502 2.8752 7.37502 2.9252 7.05002C3.0252 6.22502 3.5252 6.55002 3.5252 6.55002L2.6252 5.60002Z" fill="#3E4347"/>
<path d="M9.9001 1.57501C7.3751 -0.999992 4.6001 1.87501 4.6001 1.87501L6.2251 3.55001C6.2251 3.55001 7.8001 1.42501 9.7751 2.02501C10.0001 2.10001 10.2001 2.20001 10.2751 2.15001C10.3751 2.07501 10.0751 1.75001 9.9001 1.57501Z" fill="#3E4347"/>
<path d="M6.5001 6.70001L5.6001 7.62501C5.6001 7.62501 6.0751 8.37501 6.8751 9.20001C7.7501 10.1 8.9251 10.625 10.1001 11.825C11.8501 13.625 13.3001 15.575 13.8251 16.3C14.0251 16.575 14.0501 16.55 14.3001 16.3L15.0501 15.525L6.5001 6.70001Z" fill="#F2B200"/>
<path d="M6.5 6.70002L7.4 5.77502C7.4 5.77502 8.125 6.25002 8.925 7.07502C9.8 7.97502 10.3 9.20002 11.475 10.4C13.225 12.2 15.1 13.7 15.825 14.25C16.1 14.45 16.075 14.5 15.825 14.75L15.075 15.525L6.5 6.70002Z" fill="#FFCE31"/>
</g>
<defs>
<clipPath id="clip0_250_1508">
<rect width="16" height="16" fill="white" transform="translate(0 0.5)"/>
</clipPath>
</defs>
</svg>
