<svg width="20" height="20" viewBox="0 0 20 20" fill="none" xmlns="http://www.w3.org/2000/svg">
<g clip-path="url(#clip0_462_803)">
<path d="M11.6421 9.16403C11.9053 9.45156 12.1416 9.82869 12.0416 9.92762C11.9417 10.0266 11.634 9.8474 11.3977 9.61337C11.1615 9.37934 10.5999 11.86 10.5446 11.9857C10.5041 12.0807 9.84934 12.8228 9.50647 13.5302C9.39174 13.7656 9.40928 14.477 9.36609 14.5198C9.19329 14.691 8.97594 14.6723 8.50483 14.2591C8.0337 13.8458 7.78802 16.3051 8.35092 16.6942C9.31209 17.3589 11.2344 20 13.775 20C16.7138 20 19.4339 16.963 19.4339 14.7352C19.4339 12.5072 18.7738 11.6621 18.8169 9.7939C18.8534 8.21325 20.0144 7.45769 20.0144 6.66734C20.0144 6.00272 19.0168 5.8409 18.6901 5.8409C18.1096 5.8409 16.622 6.57775 16.622 8.51815C16.622 9.27237 16.4046 9.95572 15.6244 9.95572C14.8441 9.95572 13.9734 8.89525 13.4483 8.06881" fill="url(#paint0_linear_462_803)"/>
<path d="M20.0131 6.66591C20.0131 6.30485 19.7174 6.09222 19.3961 5.97322C19.7822 7.24094 17.8235 7.29578 17.8235 11.6178C17.8235 15.9399 15.2843 17.197 14.2313 17.4123C13.1797 17.6276 11.3249 17.6904 9.91422 15.9747C9.48091 15.4478 8.89369 14.8755 8.24031 14.3352C7.96359 14.7926 7.90552 16.3866 8.34833 16.6942C9.30946 17.3588 11.2318 19.9999 13.7723 19.9999C16.7111 19.9999 19.4313 16.9629 19.4313 14.7351C19.4313 12.5072 18.7711 11.662 18.8143 9.79381C18.8521 8.21181 20.0131 7.45625 20.0131 6.66591Z" fill="url(#paint1_linear_462_803)"/>
<path d="M8.50357 14.2578C8.03244 13.8446 6.91606 12.6677 6.19114 12.0927C5.46622 11.5177 4.83042 11.5244 4.39572 12.1596C3.96105 12.7948 5.22998 13.9074 5.52023 14.1949C5.96436 14.6349 7.78811 16.3038 8.34969 16.693" fill="url(#paint2_linear_462_803)"/>
<path d="M10.5447 11.9843C10.4907 12.11 10.1195 12.1969 9.38378 11.4039C8.82084 10.7982 7.31567 9.05566 6.42744 8.26535C5.53917 7.475 4.84936 7.15138 4.26889 7.5646C3.68842 7.97782 4.01778 8.83903 4.66845 9.55982C5.47166 10.4491 6.39501 11.3571 7.28059 12.2277C7.97308 12.9084 9.53901 14.3486 9.36624 14.5184" fill="url(#paint3_linear_462_803)"/>
<path d="M13.4469 8.06753C12.9204 7.2411 10.7618 4.58125 10.2367 3.82703C9.71025 3.07281 9.0029 3.07281 8.51287 3.41381C8.02284 3.75481 7.87839 4.43819 8.97994 5.88913C9.67514 6.80516 10.2543 7.64631 11.642 9.16409L13.2565 9.05313L13.4469 8.06753Z" fill="url(#paint4_linear_462_803)"/>
<path d="M11.3965 9.61334C11.1603 9.37931 9.07464 6.93075 8.6035 6.40522C7.7193 5.42097 6.59886 3.31475 5.26107 4.25353C4.55776 4.74697 4.93845 5.46244 5.13823 5.74994C5.33804 6.03747 7.93126 9.00219 8.18505 9.25359C8.43883 9.50503 10.5973 11.8586 10.5434 11.9843" fill="url(#paint5_linear_462_803)"/>
<path d="M7.27908 12.2278C7.93242 12.8697 9.36201 14.1869 9.37687 14.4771C9.5834 14.1575 9.20542 13.2107 8.80719 12.8777C6.50286 10.9547 4.27681 7.85622 3.99334 7.9485C3.87186 8.39916 4.17962 9.01831 4.66697 9.55856C5.47015 10.4492 6.39353 11.3559 7.27908 12.2278Z" fill="url(#paint6_linear_462_803)"/>
<path d="M11.642 9.16403C11.8944 9.44085 12.1212 9.79925 12.0497 9.91425C12.8907 9.24428 11.1115 7.27447 10.1031 6.09097C9.32281 5.17494 9.11088 4.0115 8.55202 3.387C8.53852 3.39503 8.52502 3.40438 8.51287 3.41375C8.02284 3.75475 7.87839 4.43809 8.97994 5.88903C9.67514 6.80375 10.2543 7.64622 11.642 9.16403Z" fill="url(#paint7_linear_462_803)"/>
<path d="M8.18619 9.25353C8.43998 9.50494 10.5985 11.8586 10.5446 11.9842C11.2114 11.095 8.62629 8.48059 7.3749 7.15937C6.28954 6.01465 6.10326 5.01168 5.0449 4.44868C4.65074 4.9194 4.96392 5.49847 5.13941 5.74853C5.33783 6.03737 7.93241 9.00212 8.18619 9.25353Z" fill="url(#paint8_linear_462_803)"/>
<path d="M10.496 12.038C10.4205 12.0835 10.2652 12.0888 10.0249 11.9498C10.2031 12.0942 10.3691 12.1477 10.496 12.038Z" fill="url(#paint9_linear_462_803)"/>
<path d="M5.83746 16.7558C5.82125 16.7558 5.80507 16.7531 5.79021 16.7491C4.13519 16.2489 2.34112 14.4556 1.95235 12.9124C1.93075 12.8255 1.98339 12.7386 2.07116 12.7158C2.15888 12.6944 2.24664 12.7466 2.26958 12.8335C2.62866 14.2564 4.35254 15.9748 5.88605 16.4388C5.97245 16.4656 6.02106 16.5552 5.99406 16.6407C5.97245 16.7103 5.90765 16.7558 5.83746 16.7558Z" fill="#C3C4C8"/>
<path d="M6.62713 18.791C6.61495 18.791 6.60281 18.7897 6.58931 18.787C5.21915 18.4714 3.62757 17.4578 2.22095 16.0055C0.906089 14.6482 0.0556442 13.2039 0.000297214 12.237C-0.00510342 12.1474 0.0637419 12.0712 0.15419 12.0659C0.243284 12.0605 0.321578 12.1287 0.326978 12.2183C0.376925 13.0983 1.21252 14.497 2.45716 15.7808C3.8206 17.189 5.35278 18.1692 6.66357 18.4714C6.75133 18.4915 6.80666 18.5784 6.78505 18.6653C6.76751 18.7402 6.70136 18.791 6.62713 18.791Z" fill="#C3C4C8"/>
<path d="M13.6467 4.63597C13.5738 4.63597 13.5077 4.58782 13.4888 4.5156C13.2593 3.65172 12.2158 2.41341 11.2654 2.16869C11.1777 2.14594 11.1264 2.05769 11.148 1.9721C11.1709 1.88519 11.26 1.83303 11.3464 1.85575C12.4169 2.12991 13.5455 3.46585 13.8033 4.43269C13.8263 4.51963 13.775 4.60788 13.6872 4.6306C13.6737 4.63328 13.6602 4.63597 13.6467 4.63597Z" fill="#C3C4C8"/>
<path d="M15.7055 4.92347C15.6326 4.92347 15.5664 4.87534 15.5475 4.80178C14.9347 2.41475 12.6479 0.553255 11.3412 0.320568C11.252 0.304521 11.194 0.220271 11.2089 0.133349C11.225 0.0450896 11.3101 -0.0124164 11.3979 0.00229293C12.822 0.256374 15.2087 2.17403 15.8621 4.72153C15.8837 4.80847 15.831 4.89672 15.7446 4.91812C15.7325 4.92081 15.7176 4.92347 15.7055 4.92347Z" fill="#C3C4C8"/>
<path d="M18.844 6.10844C19.3974 6.0095 19.496 6.07234 19.3961 5.97203C19.1261 5.87175 18.8372 5.83831 18.6887 5.83831C18.1083 5.83831 16.6206 6.57515 16.6206 8.51556C16.6206 9.26978 16.4033 9.95312 15.623 9.95312C15.3153 9.95312 14.994 9.78862 14.6848 9.53722C16.0536 11.039 17.1282 9.62415 17.2915 8.65462C17.4549 7.68644 17.2187 6.39862 18.844 6.10844Z" fill="url(#paint10_radial_462_803)"/>
<path d="M8.34557 3.56094C8.00674 3.94072 8.01756 4.6214 8.98005 5.88915C9.67525 6.80519 10.2544 7.64631 11.6421 9.16412C11.9053 9.45165 12.1416 9.82875 12.0417 9.92772C12.2739 8.35509 10.0154 6.81053 9.28109 5.62434C8.69794 4.68425 8.58182 4.13062 8.34557 3.56094Z" fill="url(#paint11_linear_462_803)"/>
<path d="M8.18615 9.25372C8.43993 9.50513 10.5985 11.8587 10.5445 11.9844C11.021 11.6474 10.6957 11.1232 9.95996 10.3944C8.45075 8.89932 6.3516 6.89207 5.50656 5.23788C5.4269 5.08141 5.27842 4.96641 5.10293 4.94366C4.64665 4.88482 4.98548 5.52938 5.13801 5.74869C5.33782 6.03757 7.93236 9.00232 8.18615 9.25372Z" fill="url(#paint12_linear_462_803)"/>
<path d="M4.66702 9.55853C5.47023 10.4478 6.39358 11.3558 7.27913 12.2264C7.97165 12.9071 9.53758 14.3473 9.36478 14.5172C10.3354 13.7081 5.82661 10.7822 3.99339 7.94847C3.87326 8.39913 4.1797 9.01963 4.66702 9.55853Z" fill="url(#paint13_linear_462_803)"/>
<path d="M9.1664 14.6803C9.25819 14.6442 9.30677 14.6014 9.32163 14.5559C9.15561 14.683 8.9369 14.6375 8.50359 14.2577C8.03245 13.8445 6.91605 12.6677 6.19116 12.0927C5.87255 11.8399 5.57151 11.6995 5.29614 11.6754C5.68895 11.9188 5.50671 12.0071 6.38147 12.6717C6.8499 13.0274 8.56703 14.9143 9.1664 14.6803Z" fill="url(#paint14_radial_462_803)"/>
<path d="M8.02297 10.3676C8.66014 11.1352 9.90206 12.4042 10.461 12.0539C10.307 12.106 9.95607 12.0218 9.3837 11.4053C8.82077 10.7995 7.31559 9.05703 6.42736 8.26669C5.70783 7.62613 5.11925 7.29316 4.61304 7.40816C6.08581 7.88691 7.42089 9.64141 8.02297 10.3676Z" fill="url(#paint15_radial_462_803)"/>
<path d="M8.71265 7.06187C9.72915 8.15709 11.237 10.3288 12.0025 9.94906C11.8769 9.98784 11.6083 9.822 11.3977 9.61337C11.1615 9.37937 9.0758 6.93081 8.60467 6.40525C7.9918 5.72325 7.26552 4.50366 6.43262 4.13056C7.27227 4.78581 7.88921 6.17391 8.71265 7.06187Z" fill="url(#paint16_radial_462_803)"/>
<path d="M14.6849 9.53981C14.2097 9.15469 13.7656 8.56894 13.4457 8.06747C12.9192 7.24103 10.7606 4.58119 10.2355 3.82697C10.0749 3.59694 9.89806 3.43781 9.71582 3.33619C9.9615 3.68388 10.0992 4.18135 10.6527 4.79781C11.5409 5.78606 12.7019 7.56466 13.1014 8.17578C13.501 8.78691 14.1449 10.0747 14.6849 9.53981Z" fill="url(#paint17_linear_462_803)"/>
<path d="M17.5953 18.3083C17.2646 17.5126 16.7827 17.0285 16.0861 17.4832C14.1841 18.7242 11.9958 18.3043 9.25411 16.1085C6.80802 14.1493 5.54313 12.7479 4.3525 12.2411C4.06767 12.8856 5.24345 13.9193 5.52155 14.1948C5.96569 14.6348 7.78944 16.3037 8.35102 16.6928C9.31215 17.3575 11.2345 19.9986 13.775 19.9986C15.1911 19.9986 16.5586 19.2912 17.5953 18.3083Z" fill="url(#paint18_linear_462_803)"/>
<path d="M18.8157 9.79247C18.8522 8.21181 20.0131 7.45625 20.0131 6.66591C20.0131 6.43322 19.8903 6.26206 19.7175 6.13769C19.9294 6.75284 19.4245 7.29978 18.6699 8.22919C17.8532 9.23481 17.6723 10.7994 18.2353 12.3627C18.7982 13.926 18.0908 16.0817 16.9474 16.765C15.804 17.4484 14.2867 20.4492 9.93856 17.0579C9.93721 17.0566 9.93721 17.0566 9.93585 17.0552C9.66992 16.8105 9.40803 16.5952 9.1421 16.4321C7.30617 15.3047 6.25998 14.2924 5.46894 13.4406C5.31367 13.2734 4.89519 12.6315 4.39844 12.8415C4.64683 13.3991 5.31774 13.9955 5.51888 14.1948C5.96301 14.6348 7.78677 16.3037 8.34834 16.6928C8.42121 16.7436 8.50087 16.8065 8.58456 16.8774C8.60617 16.8961 8.62913 16.9148 8.65071 16.9349C8.6561 16.9402 8.66285 16.9456 8.66828 16.9509C8.68311 16.9629 8.69661 16.9763 8.71147 16.9897C8.71415 16.9924 8.71822 16.995 8.72093 16.9991C9.29194 17.5126 10.0776 18.3617 11.0401 19.0264C11.0401 19.0264 11.0414 19.0264 11.0414 19.0277C11.1265 19.0866 11.2115 19.1427 11.2993 19.1975C11.3006 19.1989 11.302 19.1989 11.3033 19.2002C11.3897 19.255 11.4775 19.3072 11.5666 19.358C11.5679 19.358 11.5679 19.3593 11.5693 19.3593C12.2348 19.7378 12.9732 19.9999 13.771 19.9999C16.7098 19.9999 19.4299 16.9629 19.4299 14.7351C19.4299 12.5072 18.7725 11.6607 18.8157 9.79247Z" fill="url(#paint19_radial_462_803)"/>
</g>
<defs>
<linearGradient id="paint0_linear_462_803" x1="18.0044" y1="20.575" x2="15.6212" y2="14.9387" gradientUnits="userSpaceOnUse">
<stop offset="0.00132565" stop-color="#BE8D68"/>
<stop offset="1" stop-color="#CD9870"/>
</linearGradient>
<linearGradient id="paint1_linear_462_803" x1="19.7444" y1="18.1527" x2="14.7216" y2="12.1044" gradientUnits="userSpaceOnUse">
<stop offset="0.00132565" stop-color="#BE8D68"/>
<stop offset="1" stop-color="#CD9870"/>
</linearGradient>
<linearGradient id="paint2_linear_462_803" x1="4.9108" y1="12.6705" x2="7.88388" y2="14.8805" gradientUnits="userSpaceOnUse">
<stop offset="0.00132565" stop-color="#BE8D68"/>
<stop offset="1" stop-color="#CD9870"/>
</linearGradient>
<linearGradient id="paint3_linear_462_803" x1="3.82107" y1="6.89182" x2="9.02063" y2="12.3854" gradientUnits="userSpaceOnUse">
<stop offset="0.00132565" stop-color="#BE8D68"/>
<stop offset="1" stop-color="#CD9870"/>
</linearGradient>
<linearGradient id="paint4_linear_462_803" x1="9.49281" y1="4.32316" x2="12.4995" y2="9.09266" gradientUnits="userSpaceOnUse">
<stop offset="0.00132565" stop-color="#BE8D68"/>
<stop offset="1" stop-color="#CD9870"/>
</linearGradient>
<linearGradient id="paint5_linear_462_803" x1="6.34732" y1="5.11112" x2="10.4329" y2="10.6824" gradientUnits="userSpaceOnUse">
<stop offset="0.00132565" stop-color="#BE8D68"/>
<stop offset="1" stop-color="#CD9870"/>
</linearGradient>
<linearGradient id="paint6_linear_462_803" x1="7.85217" y1="10.1251" x2="6.13165" y2="11.7612" gradientUnits="userSpaceOnUse">
<stop stop-color="#BE8D68" stop-opacity="0"/>
<stop offset="1" stop-color="#B37E53"/>
</linearGradient>
<linearGradient id="paint7_linear_462_803" x1="11.2657" y1="5.77897" x2="8.67584" y2="8.13924" gradientUnits="userSpaceOnUse">
<stop stop-color="#BE8D68" stop-opacity="0"/>
<stop offset="1" stop-color="#B37E53"/>
</linearGradient>
<linearGradient id="paint8_linear_462_803" x1="8.8631" y1="7.44312" x2="5.29519" y2="10.0762" gradientUnits="userSpaceOnUse">
<stop stop-color="#BE8D68" stop-opacity="0"/>
<stop offset="1" stop-color="#B37E53"/>
</linearGradient>
<linearGradient id="paint9_linear_462_803" x1="11.5387" y1="11.0688" x2="7.97073" y2="13.7019" gradientUnits="userSpaceOnUse">
<stop stop-color="#BE8D68" stop-opacity="0"/>
<stop offset="1" stop-color="#B37E53"/>
</linearGradient>
<radialGradient id="paint10_radial_462_803" cx="0" cy="0" r="1" gradientUnits="userSpaceOnUse" gradientTransform="translate(16.2499 6.84587) scale(4.31155 4.27112)">
<stop stop-color="#B37E53" stop-opacity="0"/>
<stop offset="1" stop-color="#B37E53"/>
</radialGradient>
<linearGradient id="paint11_linear_462_803" x1="11.7439" y1="5.32031" x2="9.5322" y2="7.38958" gradientUnits="userSpaceOnUse">
<stop offset="0.3072" stop-color="#B37E53" stop-opacity="0"/>
<stop offset="1" stop-color="#B37E53"/>
</linearGradient>
<linearGradient id="paint12_linear_462_803" x1="10.0353" y1="6.4306" x2="7.12155" y2="9.08136" gradientUnits="userSpaceOnUse">
<stop offset="0.3072" stop-color="#B37E53" stop-opacity="0"/>
<stop offset="1" stop-color="#B37E53"/>
</linearGradient>
<linearGradient id="paint13_linear_462_803" x1="9.04228" y1="9.2681" x2="5.44278" y2="12.3203" gradientUnits="userSpaceOnUse">
<stop offset="0.3072" stop-color="#B37E53" stop-opacity="0"/>
<stop offset="1" stop-color="#B37E53"/>
</linearGradient>
<radialGradient id="paint14_radial_462_803" cx="0" cy="0" r="1" gradientUnits="userSpaceOnUse" gradientTransform="translate(7.30857 13.1879) scale(1.78615 1.7694)">
<stop stop-color="#B37E53" stop-opacity="0"/>
<stop offset="1" stop-color="#B37E53"/>
</radialGradient>
<radialGradient id="paint15_radial_462_803" cx="0" cy="0" r="1" gradientUnits="userSpaceOnUse" gradientTransform="translate(7.53581 9.74888) scale(2.66924 2.64421)">
<stop stop-color="#B37E53" stop-opacity="0"/>
<stop offset="1" stop-color="#B37E53"/>
</radialGradient>
<radialGradient id="paint16_radial_462_803" cx="0" cy="0" r="1" gradientUnits="userSpaceOnUse" gradientTransform="translate(9.21647 7.06166) scale(2.87342 2.84648)">
<stop stop-color="#B37E53" stop-opacity="0"/>
<stop offset="1" stop-color="#B37E53"/>
</radialGradient>
<linearGradient id="paint17_linear_462_803" x1="12.2894" y1="5.96875" x2="10.6151" y2="14.9949" gradientUnits="userSpaceOnUse">
<stop offset="0.3118" stop-color="#DEBA94" stop-opacity="0"/>
<stop offset="1" stop-color="#D2A374"/>
</linearGradient>
<linearGradient id="paint18_linear_462_803" x1="10.2192" y1="15.962" x2="8.38494" y2="17.6638" gradientUnits="userSpaceOnUse">
<stop offset="0.3118" stop-color="#B37E53" stop-opacity="0"/>
<stop offset="1" stop-color="#B37E53"/>
</linearGradient>
<radialGradient id="paint19_radial_462_803" cx="0" cy="0" r="1" gradientUnits="userSpaceOnUse" gradientTransform="translate(11.8172 11.7371) rotate(47.876) scale(12.429 11.2951)">
<stop offset="0.6147" stop-color="#B37E53" stop-opacity="0"/>
<stop offset="1" stop-color="#B37E53"/>
</radialGradient>
<clipPath id="clip0_462_803">
<rect width="20" height="20" fill="white"/>
</clipPath>
</defs>
</svg>
