<svg width="48" height="48" viewBox="0 0 48 48" fill="none" xmlns="http://www.w3.org/2000/svg">
<path d="M46.8362 24C46.8362 10.7452 36.4167 0 23.5635 0C10.7103 0 0.290771 10.7452 0.290771 24C0.290771 37.2548 10.7103 48 23.5635 48C36.4167 48 46.8362 37.2548 46.8362 24Z" fill="#0277BD"/>
<path d="M11.1071 19.7226L11.5674 25.0203H23.0636V19.7226H11.1071ZM23.0633 9H10.1819L10.6489 14.2977H23.0633V9ZM23.0633 38.9932V33.4813L23.0409 33.4875L17.3196 31.8945L16.9538 27.6691H11.7969L12.5166 35.9874L23.0398 39L23.0633 38.9932Z" fill="#EBEBEB"/>
<path d="M29.3717 25.0203L28.7754 31.891L23.0459 33.4858V38.9973L33.5774 35.9874L33.6546 35.0923L34.8618 21.1453L34.987 19.7226L35.9146 9H23.0459V14.2977H30.2846L29.8172 19.7226H23.0459V25.0203H29.3717Z" fill="white"/>
</svg>
