<svg width="48" height="48" viewBox="0 0 48 48" fill="none" xmlns="http://www.w3.org/2000/svg">
<g clip-path="url(#clip0_157_353)">
<path d="M48 24C48 10.7452 37.2548 0 24 0C10.7452 0 0 10.7452 0 24C0 37.2548 10.7452 48 24 48C37.2548 48 48 37.2548 48 24Z" fill="#E14E1D"/>
<path d="M10.5 9L11.928 25.0198H30.289L29.6729 31.8909L23.7611 33.4893L17.8604 31.8933L17.4658 27.4813H12.1485L12.909 35.9862L23.7598 39L34.6246 35.9862L36.0813 19.7229H16.773L16.2884 14.298H36.5613L37.0358 9H10.5Z" fill="white"/>
<path d="M23.768 9H10.5L11.928 25.0198H23.768V19.7229H16.773L16.2884 14.298H23.768V9ZM23.768 33.487L23.7611 33.4893L17.8604 31.8933L17.4658 27.4813H12.1485L12.909 35.9862L23.7598 39L23.7681 38.9977L23.768 33.487Z" fill="#EBEBEB"/>
</g>
<defs>
<clipPath id="clip0_157_353">
<rect width="48" height="48" rx="24" fill="white"/>
</clipPath>
</defs>
</svg>
