<svg width="48" height="48" viewBox="0 0 48 48" fill="none" xmlns="http://www.w3.org/2000/svg">
<g clip-path="url(#clip0_157_361)">
<path d="M47.4183 24C47.4183 10.7452 36.9987 0 24.1455 0C11.2924 0 0.872803 10.7452 0.872803 24C0.872803 37.2548 11.2924 48 24.1455 48C36.9987 48 47.4183 37.2548 47.4183 24Z" fill="#F0DB4F"/>
<path d="M9.45476 30.8823L12.8318 28.7746C13.4834 29.966 14.076 30.9738 15.4976 30.9738C16.8604 30.9738 17.7196 30.4242 17.7196 28.2859V13.7446H21.8668V28.3464C21.8668 32.7759 19.349 34.7922 15.6754 34.7922C12.3579 34.7922 10.4324 33.0207 9.45476 30.8823ZM24.1193 30.424L27.496 28.4079C28.3849 29.9049 29.5403 31.0046 31.584 31.0046C33.3026 31.0046 34.3983 30.1187 34.3983 28.8966C34.3983 27.4304 33.2726 26.9109 31.3768 26.0558L30.3401 25.5973C27.3481 24.2839 25.3632 22.6343 25.3632 19.1517C25.3632 15.944 27.7331 13.5 31.4363 13.5C34.0726 13.5 35.9685 14.4472 37.3311 16.9215L34.1022 19.0601C33.391 17.7465 32.6211 17.2272 31.4363 17.2272C30.2216 17.2272 29.4514 18.0215 29.4514 19.0601C29.4514 20.343 30.2216 20.8624 31.9989 21.6568L33.0355 22.115C36.5606 23.6732 38.5455 25.2614 38.5455 28.8354C38.5455 32.6849 35.6128 34.7925 31.6731 34.7925C27.8222 34.7925 25.3337 32.8986 24.1193 30.424Z" fill="#323330"/>
</g>
<defs>
<clipPath id="clip0_157_361">
<rect width="48" height="48" fill="white"/>
</clipPath>
</defs>
</svg>
